G04*
G04 #@! TF.GenerationSoftware,Altium Limited,Altium Designer,20.2.5 (213)*
G04*
G04 Layer_Color=8388736*
%FSLAX42Y42*%
%MOMM*%
G71*
G04*
G04 #@! TF.SameCoordinates,652FF055-600A-4CD0-B872-06A474BCBBFF*
G04*
G04*
G04 #@! TF.FilePolarity,Negative*
G04*
G01*
G75*
%ADD12C,0.25*%
%ADD23R,0.80X1.05*%
%ADD24R,1.22X1.60*%
%ADD25R,1.05X0.50*%
%ADD26R,0.50X1.05*%
%ADD27R,5.80X5.80*%
%ADD28R,3.70X5.10*%
%ADD29R,1.10X5.30*%
%ADD30R,1.60X1.22*%
%ADD31C,1.70*%
%ADD32R,1.70X1.70*%
%ADD33R,1.70X1.70*%
%ADD34C,1.73*%
%ADD35R,1.73X1.73*%
%ADD36C,3.30*%
%ADD37C,0.90*%
D12*
X7640Y5300D02*
X10100D01*
X7640D02*
Y7100D01*
X4000D02*
X7640D01*
X4000D02*
Y9500D01*
X10100D01*
Y5300D02*
Y9500D01*
D23*
X8028Y6482D02*
D03*
X7932Y6697D02*
D03*
X8122D02*
D03*
D24*
X7955Y6272D02*
D03*
X8146D02*
D03*
X8360Y6915D02*
D03*
X8550D02*
D03*
X8136D02*
D03*
X7945D02*
D03*
X8890Y6985D02*
D03*
X9081D02*
D03*
Y6731D02*
D03*
X8890D02*
D03*
D25*
X8705Y7575D02*
D03*
Y7625D02*
D03*
Y7675D02*
D03*
Y7725D02*
D03*
Y7775D02*
D03*
Y7825D02*
D03*
Y7875D02*
D03*
Y7925D02*
D03*
Y7975D02*
D03*
Y8025D02*
D03*
Y8075D02*
D03*
Y8125D02*
D03*
X8015D02*
D03*
Y8075D02*
D03*
Y8025D02*
D03*
Y7975D02*
D03*
Y7925D02*
D03*
Y7875D02*
D03*
Y7825D02*
D03*
Y7775D02*
D03*
Y7725D02*
D03*
Y7675D02*
D03*
Y7625D02*
D03*
Y7575D02*
D03*
D26*
X8635Y8195D02*
D03*
X8585D02*
D03*
X8535D02*
D03*
X8485D02*
D03*
X8435D02*
D03*
X8385D02*
D03*
X8335D02*
D03*
X8285D02*
D03*
X8235D02*
D03*
X8185D02*
D03*
X8135D02*
D03*
X8085D02*
D03*
Y7505D02*
D03*
X8135D02*
D03*
X8185D02*
D03*
X8235D02*
D03*
X8285D02*
D03*
X8335D02*
D03*
X8385D02*
D03*
X8435D02*
D03*
X8485D02*
D03*
X8535D02*
D03*
X8585D02*
D03*
X8635D02*
D03*
D27*
X8360Y7850D02*
D03*
D28*
X4980Y7378D02*
D03*
X5657D02*
D03*
X6600Y7382D02*
D03*
X7277D02*
D03*
D29*
X5320Y7360D02*
D03*
X6940Y7365D02*
D03*
D30*
X8395Y6475D02*
D03*
Y6665D02*
D03*
D31*
X7952Y5950D02*
D03*
X8206D02*
D03*
X8460D02*
D03*
X8714D02*
D03*
X8968D02*
D03*
X7952Y5696D02*
D03*
X8206D02*
D03*
X8460D02*
D03*
X8714D02*
D03*
X8968D02*
D03*
X9222Y5950D02*
D03*
X9652Y6731D02*
D03*
Y6985D02*
D03*
D32*
X9222Y5696D02*
D03*
D33*
X9398Y6731D02*
D03*
Y6985D02*
D03*
D34*
X8408Y9004D02*
D03*
X8662D02*
D03*
X8408Y8750D02*
D03*
X8916D02*
D03*
X8662D02*
D03*
X8154Y9004D02*
D03*
Y8750D02*
D03*
X7900Y9004D02*
D03*
Y8750D02*
D03*
X7646Y9004D02*
D03*
Y8750D02*
D03*
X7392Y9004D02*
D03*
Y8750D02*
D03*
X7138Y9004D02*
D03*
Y8750D02*
D03*
D35*
X8916Y9004D02*
D03*
D36*
X4300Y7400D02*
D03*
X9800Y5600D02*
D03*
Y9200D02*
D03*
X4300D02*
D03*
D37*
X8500Y8000D02*
D03*
X8350D02*
D03*
X8200D02*
D03*
X8347Y7850D02*
D03*
X8500D02*
D03*
X8200D02*
D03*
X8350Y7700D02*
D03*
X8500D02*
D03*
X8200D02*
D03*
X8712Y6897D02*
D03*
X8200Y6740D02*
D03*
X6510Y7762D02*
D03*
X5765Y7770D02*
D03*
X5320Y7780D02*
D03*
X6940Y7790D02*
D03*
X8050Y8500D02*
D03*
X8740Y8490D02*
D03*
X8390D02*
D03*
X8870Y7460D02*
D03*
X8870Y7800D02*
D03*
X8955Y7940D02*
D03*
X8950Y7630D02*
D03*
X8865Y8180D02*
D03*
X8570Y8360D02*
D03*
X8255Y8350D02*
D03*
X7900Y8340D02*
D03*
X7750Y7470D02*
D03*
X7745Y8080D02*
D03*
X7845Y7910D02*
D03*
X7840Y7620D02*
D03*
X7745Y7770D02*
D03*
X8645Y7110D02*
D03*
X7965Y7140D02*
D03*
X7965Y7300D02*
D03*
X8310Y7393D02*
D03*
M02*
