G04*
G04 #@! TF.GenerationSoftware,Altium Limited,Altium Designer,20.2.5 (213)*
G04*
G04 Layer_Color=65535*
%FSLAX42Y42*%
%MOMM*%
G71*
G04*
G04 #@! TF.SameCoordinates,652FF055-600A-4CD0-B872-06A474BCBBFF*
G04*
G04*
G04 #@! TF.FilePolarity,Positive*
G04*
G01*
G75*
%ADD10C,0.25*%
%ADD11C,0.20*%
%ADD12C,0.25*%
%ADD13C,0.19*%
%ADD14C,0.16*%
G36*
X5117Y9248D02*
X5130D01*
Y9247D01*
X5138D01*
Y9245D01*
X5146D01*
Y9244D01*
X5152D01*
Y9242D01*
X5157D01*
Y9240D01*
X5159D01*
Y9239D01*
X5164D01*
Y9237D01*
X5167D01*
Y9236D01*
Y9234D01*
Y9232D01*
Y9231D01*
Y9229D01*
Y9228D01*
Y9226D01*
Y9224D01*
Y9223D01*
Y9221D01*
Y9220D01*
Y9218D01*
Y9217D01*
Y9215D01*
Y9213D01*
Y9212D01*
Y9210D01*
Y9209D01*
Y9207D01*
Y9205D01*
X5165D01*
Y9207D01*
Y9209D01*
X5164D01*
Y9210D01*
X5159D01*
Y9212D01*
X5156D01*
Y9213D01*
X5152D01*
Y9215D01*
X5148D01*
Y9217D01*
X5143D01*
Y9218D01*
Y9220D01*
X5136D01*
Y9221D01*
X5132D01*
Y9223D01*
X5122D01*
Y9224D01*
X5089D01*
Y9223D01*
X5081D01*
Y9221D01*
X5076D01*
Y9220D01*
X5071D01*
Y9218D01*
Y9217D01*
X5069D01*
Y9215D01*
X5066D01*
Y9213D01*
X5065D01*
Y9212D01*
X5061D01*
Y9210D01*
X5060D01*
Y9209D01*
X5058D01*
Y9207D01*
Y9205D01*
X5055D01*
Y9204D01*
X5057D01*
Y9202D01*
X5054D01*
Y9201D01*
Y9199D01*
X5052D01*
Y9197D01*
Y9196D01*
Y9194D01*
Y9193D01*
Y9191D01*
X5050D01*
Y9189D01*
Y9188D01*
Y9186D01*
Y9185D01*
Y9183D01*
Y9181D01*
Y9180D01*
Y9178D01*
Y9177D01*
Y9175D01*
Y9173D01*
Y9172D01*
X5052D01*
Y9170D01*
Y9169D01*
Y9167D01*
Y9166D01*
Y9164D01*
X5054D01*
Y9162D01*
Y9161D01*
X5057D01*
Y9159D01*
X5058D01*
Y9158D01*
Y9156D01*
Y9154D01*
X5060D01*
Y9153D01*
X5065D01*
Y9151D01*
X5066D01*
Y9150D01*
X5069D01*
Y9148D01*
X5073D01*
Y9146D01*
X5074D01*
Y9145D01*
X5079D01*
Y9143D01*
X5082D01*
Y9142D01*
X5090D01*
Y9140D01*
X5098D01*
Y9138D01*
X5105D01*
Y9137D01*
X5106D01*
Y9135D01*
X5114D01*
Y9134D01*
X5120D01*
Y9132D01*
X5128D01*
Y9130D01*
X5133D01*
Y9129D01*
X5136D01*
Y9127D01*
X5141D01*
Y9126D01*
Y9124D01*
X5144D01*
Y9122D01*
X5149D01*
Y9121D01*
X5152D01*
Y9119D01*
X5156D01*
Y9118D01*
X5157D01*
Y9116D01*
X5159D01*
Y9115D01*
X5160D01*
Y9113D01*
X5162D01*
Y9111D01*
X5164D01*
Y9110D01*
X5165D01*
Y9108D01*
X5167D01*
Y9107D01*
X5168D01*
Y9105D01*
X5170D01*
Y9103D01*
X5171D01*
Y9102D01*
X5170D01*
Y9100D01*
X5173D01*
Y9099D01*
X5175D01*
Y9097D01*
Y9095D01*
Y9094D01*
X5176D01*
Y9092D01*
Y9091D01*
Y9089D01*
X5178D01*
Y9087D01*
Y9086D01*
Y9084D01*
Y9083D01*
X5179D01*
Y9081D01*
Y9079D01*
Y9078D01*
Y9076D01*
Y9075D01*
X5181D01*
Y9073D01*
X5183D01*
Y9071D01*
Y9070D01*
Y9068D01*
Y9067D01*
Y9065D01*
Y9064D01*
Y9062D01*
Y9060D01*
Y9059D01*
Y9057D01*
Y9056D01*
Y9054D01*
Y9052D01*
Y9051D01*
Y9049D01*
Y9048D01*
X5179D01*
Y9046D01*
Y9044D01*
Y9043D01*
Y9041D01*
Y9040D01*
Y9038D01*
X5178D01*
Y9036D01*
Y9035D01*
Y9033D01*
X5176D01*
Y9032D01*
Y9030D01*
Y9028D01*
Y9027D01*
X5175D01*
Y9025D01*
Y9024D01*
X5173D01*
Y9022D01*
Y9020D01*
X5171D01*
Y9019D01*
Y9017D01*
X5170D01*
Y9016D01*
X5167D01*
Y9014D01*
Y9013D01*
X5165D01*
Y9011D01*
X5164D01*
Y9009D01*
Y9008D01*
X5162D01*
Y9006D01*
X5160D01*
Y9005D01*
X5156D01*
Y9003D01*
X5154D01*
Y9001D01*
X5151D01*
Y9000D01*
X5149D01*
Y8998D01*
X5148D01*
Y8997D01*
X5143D01*
Y8995D01*
X5140D01*
Y8993D01*
X5135D01*
Y8992D01*
X5128D01*
Y8990D01*
X5119D01*
Y8989D01*
X5117D01*
Y8987D01*
X5071D01*
Y8989D01*
Y8990D01*
X5060D01*
Y8992D01*
X5052D01*
Y8993D01*
X5044D01*
Y8995D01*
X5039D01*
Y8997D01*
X5033D01*
Y8998D01*
Y9000D01*
X5028D01*
Y9001D01*
X5023D01*
Y9003D01*
X5022D01*
Y9005D01*
X5023D01*
Y9006D01*
Y9008D01*
Y9009D01*
Y9011D01*
Y9013D01*
Y9014D01*
Y9016D01*
Y9017D01*
Y9019D01*
Y9020D01*
Y9022D01*
Y9024D01*
Y9025D01*
Y9027D01*
Y9028D01*
Y9030D01*
Y9032D01*
Y9033D01*
X5022D01*
Y9035D01*
X5026D01*
Y9033D01*
X5028D01*
Y9032D01*
X5030D01*
Y9030D01*
X5033D01*
Y9028D01*
X5036D01*
Y9027D01*
X5039D01*
Y9025D01*
X5046D01*
Y9024D01*
X5049D01*
Y9022D01*
Y9020D01*
X5054D01*
Y9019D01*
X5058D01*
Y9017D01*
X5065D01*
Y9016D01*
X5071D01*
Y9014D01*
X5087D01*
Y9013D01*
X5103D01*
Y9014D01*
X5116D01*
Y9016D01*
X5122D01*
Y9017D01*
X5127D01*
Y9019D01*
X5132D01*
Y9020D01*
X5133D01*
Y9022D01*
Y9024D01*
X5136D01*
Y9025D01*
X5138D01*
Y9027D01*
X5141D01*
Y9028D01*
X5143D01*
Y9030D01*
X5144D01*
Y9032D01*
Y9033D01*
Y9035D01*
X5146D01*
Y9036D01*
Y9038D01*
X5149D01*
Y9040D01*
Y9041D01*
Y9043D01*
Y9044D01*
X5151D01*
Y9046D01*
Y9048D01*
Y9049D01*
Y9051D01*
Y9052D01*
X5152D01*
Y9054D01*
Y9056D01*
Y9057D01*
Y9059D01*
Y9060D01*
Y9062D01*
Y9064D01*
Y9065D01*
X5151D01*
Y9067D01*
Y9068D01*
Y9070D01*
Y9071D01*
Y9073D01*
Y9075D01*
X5148D01*
Y9076D01*
X5149D01*
Y9078D01*
Y9079D01*
X5146D01*
Y9081D01*
Y9083D01*
Y9084D01*
X5144D01*
Y9086D01*
X5143D01*
Y9087D01*
Y9089D01*
X5141D01*
Y9091D01*
X5136D01*
Y9092D01*
Y9094D01*
X5135D01*
Y9095D01*
X5132D01*
Y9097D01*
X5127D01*
Y9099D01*
X5124D01*
Y9100D01*
X5119D01*
Y9102D01*
X5112D01*
Y9103D01*
Y9105D01*
X5105D01*
Y9107D01*
X5097D01*
Y9108D01*
X5089D01*
Y9110D01*
X5081D01*
Y9111D01*
X5074D01*
Y9113D01*
Y9115D01*
X5066D01*
Y9116D01*
X5063D01*
Y9118D01*
X5060D01*
Y9119D01*
X5054D01*
Y9121D01*
X5050D01*
Y9122D01*
X5049D01*
Y9124D01*
Y9126D01*
X5044D01*
Y9127D01*
X5042D01*
Y9129D01*
X5039D01*
Y9130D01*
X5038D01*
Y9132D01*
X5036D01*
Y9134D01*
X5034D01*
Y9135D01*
Y9137D01*
Y9138D01*
X5031D01*
Y9140D01*
X5030D01*
Y9142D01*
X5028D01*
Y9143D01*
Y9145D01*
Y9146D01*
X5026D01*
Y9148D01*
Y9150D01*
X5025D01*
Y9151D01*
Y9153D01*
Y9154D01*
X5023D01*
Y9156D01*
X5022D01*
Y9158D01*
X5023D01*
Y9159D01*
Y9161D01*
X5020D01*
Y9162D01*
Y9164D01*
Y9166D01*
Y9167D01*
Y9169D01*
Y9170D01*
Y9172D01*
Y9173D01*
Y9175D01*
Y9177D01*
Y9178D01*
Y9180D01*
Y9181D01*
Y9183D01*
Y9185D01*
Y9186D01*
Y9188D01*
Y9189D01*
Y9191D01*
Y9193D01*
X5023D01*
Y9194D01*
Y9196D01*
Y9197D01*
X5022D01*
Y9199D01*
Y9201D01*
X5025D01*
Y9202D01*
Y9204D01*
Y9205D01*
X5026D01*
Y9207D01*
Y9209D01*
X5028D01*
Y9210D01*
Y9212D01*
Y9213D01*
X5030D01*
Y9215D01*
X5031D01*
Y9217D01*
Y9218D01*
X5033D01*
Y9220D01*
X5034D01*
Y9221D01*
X5036D01*
Y9223D01*
X5038D01*
Y9224D01*
Y9226D01*
X5039D01*
Y9228D01*
X5041D01*
Y9229D01*
X5044D01*
Y9231D01*
X5046D01*
Y9232D01*
X5047D01*
Y9234D01*
X5049D01*
Y9236D01*
X5052D01*
Y9237D01*
X5054D01*
Y9239D01*
X5057D01*
Y9240D01*
X5058D01*
Y9242D01*
X5061D01*
Y9244D01*
X5068D01*
Y9245D01*
X5071D01*
Y9247D01*
X5079D01*
Y9248D01*
X5090D01*
Y9250D01*
X5117D01*
Y9248D01*
D02*
G37*
G36*
X5382Y9245D02*
X5393D01*
Y9244D01*
Y9242D01*
Y9240D01*
Y9239D01*
Y9237D01*
Y9236D01*
Y9234D01*
Y9232D01*
Y9231D01*
Y9229D01*
Y9228D01*
Y9226D01*
Y9224D01*
Y9223D01*
Y9221D01*
Y9220D01*
Y9218D01*
Y9217D01*
Y9215D01*
Y9213D01*
Y9212D01*
Y9210D01*
Y9209D01*
Y9207D01*
Y9205D01*
Y9204D01*
Y9202D01*
Y9201D01*
Y9199D01*
Y9197D01*
Y9196D01*
Y9194D01*
Y9193D01*
Y9191D01*
Y9189D01*
Y9188D01*
Y9186D01*
Y9185D01*
Y9183D01*
Y9181D01*
Y9180D01*
Y9178D01*
Y9177D01*
Y9175D01*
Y9173D01*
Y9172D01*
Y9170D01*
Y9169D01*
Y9167D01*
Y9166D01*
Y9164D01*
Y9162D01*
Y9161D01*
Y9159D01*
Y9158D01*
Y9156D01*
Y9154D01*
Y9153D01*
Y9151D01*
Y9150D01*
Y9148D01*
Y9146D01*
Y9145D01*
Y9143D01*
Y9142D01*
Y9140D01*
Y9138D01*
Y9137D01*
Y9135D01*
Y9134D01*
Y9132D01*
Y9130D01*
Y9129D01*
Y9127D01*
Y9126D01*
Y9124D01*
Y9122D01*
Y9121D01*
Y9119D01*
Y9118D01*
Y9116D01*
Y9115D01*
Y9113D01*
Y9111D01*
Y9110D01*
Y9108D01*
Y9107D01*
Y9105D01*
Y9103D01*
Y9102D01*
Y9100D01*
Y9099D01*
Y9097D01*
Y9095D01*
Y9094D01*
Y9092D01*
Y9091D01*
Y9089D01*
Y9087D01*
Y9086D01*
Y9084D01*
Y9083D01*
Y9081D01*
Y9079D01*
Y9078D01*
Y9076D01*
Y9075D01*
Y9073D01*
Y9071D01*
Y9070D01*
Y9068D01*
Y9067D01*
Y9065D01*
Y9064D01*
Y9062D01*
Y9060D01*
Y9059D01*
Y9057D01*
Y9056D01*
Y9054D01*
Y9052D01*
Y9051D01*
Y9049D01*
Y9048D01*
Y9046D01*
Y9044D01*
Y9043D01*
Y9041D01*
Y9040D01*
Y9038D01*
Y9036D01*
Y9035D01*
Y9033D01*
Y9032D01*
Y9030D01*
Y9028D01*
Y9027D01*
Y9025D01*
Y9024D01*
Y9022D01*
Y9020D01*
Y9019D01*
Y9017D01*
Y9016D01*
Y9014D01*
Y9013D01*
Y9011D01*
Y9009D01*
Y9008D01*
Y9006D01*
Y9005D01*
Y9003D01*
Y9001D01*
Y9000D01*
Y8998D01*
Y8997D01*
Y8995D01*
Y8993D01*
Y8992D01*
X5361D01*
Y8993D01*
Y8995D01*
Y8997D01*
Y8998D01*
Y9000D01*
Y9001D01*
Y9003D01*
Y9005D01*
Y9006D01*
Y9008D01*
Y9009D01*
Y9011D01*
Y9013D01*
Y9014D01*
Y9016D01*
Y9017D01*
Y9019D01*
Y9020D01*
Y9022D01*
Y9024D01*
Y9025D01*
Y9027D01*
Y9028D01*
Y9030D01*
Y9032D01*
Y9033D01*
Y9035D01*
Y9036D01*
Y9038D01*
Y9040D01*
Y9041D01*
Y9043D01*
Y9044D01*
Y9046D01*
Y9048D01*
Y9049D01*
Y9051D01*
Y9052D01*
Y9054D01*
Y9056D01*
Y9057D01*
Y9059D01*
Y9060D01*
Y9062D01*
Y9064D01*
Y9065D01*
Y9067D01*
Y9068D01*
Y9070D01*
Y9071D01*
Y9073D01*
Y9075D01*
Y9076D01*
Y9078D01*
Y9079D01*
Y9081D01*
Y9083D01*
Y9084D01*
Y9086D01*
Y9087D01*
Y9089D01*
Y9091D01*
Y9092D01*
Y9094D01*
Y9095D01*
Y9097D01*
Y9099D01*
Y9100D01*
Y9102D01*
Y9103D01*
Y9105D01*
Y9107D01*
Y9108D01*
Y9110D01*
Y9111D01*
Y9113D01*
Y9115D01*
X5262D01*
Y9113D01*
Y9111D01*
Y9110D01*
Y9108D01*
Y9107D01*
Y9105D01*
Y9103D01*
Y9102D01*
Y9100D01*
Y9099D01*
Y9097D01*
Y9095D01*
Y9094D01*
Y9092D01*
Y9091D01*
Y9089D01*
Y9087D01*
Y9086D01*
Y9084D01*
Y9083D01*
Y9081D01*
Y9079D01*
Y9078D01*
Y9076D01*
Y9075D01*
Y9073D01*
Y9071D01*
Y9070D01*
Y9068D01*
Y9067D01*
Y9065D01*
Y9064D01*
Y9062D01*
Y9060D01*
Y9059D01*
Y9057D01*
Y9056D01*
Y9054D01*
Y9052D01*
Y9051D01*
Y9049D01*
Y9048D01*
Y9046D01*
Y9044D01*
Y9043D01*
Y9041D01*
Y9040D01*
Y9038D01*
Y9036D01*
Y9035D01*
Y9033D01*
Y9032D01*
Y9030D01*
Y9028D01*
Y9027D01*
Y9025D01*
Y9024D01*
Y9022D01*
Y9020D01*
Y9019D01*
Y9017D01*
Y9016D01*
Y9014D01*
Y9013D01*
Y9011D01*
Y9009D01*
Y9008D01*
Y9006D01*
Y9005D01*
Y9003D01*
Y9001D01*
Y9000D01*
Y8998D01*
Y8997D01*
Y8995D01*
Y8993D01*
Y8992D01*
X5230D01*
Y8993D01*
Y8995D01*
Y8997D01*
Y8998D01*
Y9000D01*
Y9001D01*
Y9003D01*
Y9005D01*
Y9006D01*
Y9008D01*
Y9009D01*
Y9011D01*
Y9013D01*
Y9014D01*
Y9016D01*
Y9017D01*
Y9019D01*
Y9020D01*
Y9022D01*
Y9024D01*
Y9025D01*
Y9027D01*
Y9028D01*
Y9030D01*
Y9032D01*
Y9033D01*
Y9035D01*
Y9036D01*
Y9038D01*
Y9040D01*
Y9041D01*
Y9043D01*
Y9044D01*
Y9046D01*
Y9048D01*
Y9049D01*
Y9051D01*
Y9052D01*
Y9054D01*
Y9056D01*
Y9057D01*
Y9059D01*
Y9060D01*
Y9062D01*
Y9064D01*
Y9065D01*
Y9067D01*
Y9068D01*
Y9070D01*
Y9071D01*
Y9073D01*
Y9075D01*
Y9076D01*
Y9078D01*
Y9079D01*
Y9081D01*
Y9083D01*
Y9084D01*
Y9086D01*
Y9087D01*
Y9089D01*
Y9091D01*
Y9092D01*
Y9094D01*
Y9095D01*
Y9097D01*
Y9099D01*
Y9100D01*
Y9102D01*
Y9103D01*
Y9105D01*
Y9107D01*
Y9108D01*
Y9110D01*
Y9111D01*
Y9113D01*
Y9115D01*
Y9116D01*
Y9118D01*
Y9119D01*
Y9121D01*
Y9122D01*
Y9124D01*
Y9126D01*
Y9127D01*
Y9129D01*
Y9130D01*
Y9132D01*
Y9134D01*
Y9135D01*
Y9137D01*
Y9138D01*
Y9140D01*
Y9142D01*
Y9143D01*
Y9145D01*
Y9146D01*
Y9148D01*
Y9150D01*
Y9151D01*
Y9153D01*
Y9154D01*
Y9156D01*
Y9158D01*
Y9159D01*
Y9161D01*
Y9162D01*
Y9164D01*
Y9166D01*
Y9167D01*
Y9169D01*
Y9170D01*
Y9172D01*
Y9173D01*
Y9175D01*
Y9177D01*
Y9178D01*
Y9180D01*
Y9181D01*
Y9183D01*
Y9185D01*
Y9186D01*
Y9188D01*
Y9189D01*
Y9191D01*
Y9193D01*
Y9194D01*
Y9196D01*
Y9197D01*
Y9199D01*
Y9201D01*
Y9202D01*
Y9204D01*
Y9205D01*
Y9207D01*
Y9209D01*
Y9210D01*
Y9212D01*
Y9213D01*
Y9215D01*
Y9217D01*
Y9218D01*
Y9220D01*
Y9221D01*
Y9223D01*
Y9224D01*
Y9226D01*
Y9228D01*
Y9229D01*
Y9231D01*
Y9232D01*
Y9234D01*
Y9236D01*
Y9237D01*
Y9239D01*
Y9240D01*
Y9242D01*
Y9244D01*
Y9245D01*
X5232D01*
Y9247D01*
X5261D01*
Y9245D01*
X5262D01*
Y9244D01*
Y9242D01*
Y9240D01*
Y9239D01*
Y9237D01*
Y9236D01*
Y9234D01*
Y9232D01*
Y9231D01*
Y9229D01*
Y9228D01*
Y9226D01*
Y9224D01*
Y9223D01*
Y9221D01*
Y9220D01*
Y9218D01*
Y9217D01*
Y9215D01*
Y9213D01*
Y9212D01*
Y9210D01*
Y9209D01*
Y9207D01*
Y9205D01*
Y9204D01*
Y9202D01*
Y9201D01*
Y9199D01*
Y9197D01*
Y9196D01*
Y9194D01*
Y9193D01*
Y9191D01*
Y9189D01*
Y9188D01*
Y9186D01*
Y9185D01*
Y9183D01*
Y9181D01*
Y9180D01*
Y9178D01*
Y9177D01*
Y9175D01*
Y9173D01*
Y9172D01*
Y9170D01*
Y9169D01*
Y9167D01*
Y9166D01*
Y9164D01*
Y9162D01*
Y9161D01*
Y9159D01*
Y9158D01*
Y9156D01*
Y9154D01*
Y9153D01*
Y9151D01*
Y9150D01*
Y9148D01*
Y9146D01*
Y9145D01*
Y9143D01*
Y9142D01*
X5361D01*
Y9143D01*
Y9145D01*
Y9146D01*
Y9148D01*
Y9150D01*
Y9151D01*
Y9153D01*
Y9154D01*
Y9156D01*
Y9158D01*
Y9159D01*
Y9161D01*
Y9162D01*
Y9164D01*
Y9166D01*
Y9167D01*
Y9169D01*
Y9170D01*
Y9172D01*
Y9173D01*
Y9175D01*
Y9177D01*
Y9178D01*
Y9180D01*
Y9181D01*
Y9183D01*
Y9185D01*
Y9186D01*
Y9188D01*
Y9189D01*
Y9191D01*
Y9193D01*
Y9194D01*
Y9196D01*
Y9197D01*
Y9199D01*
Y9201D01*
Y9202D01*
Y9204D01*
Y9205D01*
Y9207D01*
Y9209D01*
Y9210D01*
Y9212D01*
Y9213D01*
Y9215D01*
Y9217D01*
Y9218D01*
Y9220D01*
Y9221D01*
Y9223D01*
Y9224D01*
Y9226D01*
Y9228D01*
Y9229D01*
Y9231D01*
Y9232D01*
Y9234D01*
Y9236D01*
Y9237D01*
Y9239D01*
Y9240D01*
Y9242D01*
Y9244D01*
Y9245D01*
X5368D01*
Y9247D01*
X5382D01*
Y9245D01*
D02*
G37*
G36*
X5686Y9435D02*
Y9433D01*
Y9432D01*
Y9430D01*
X5685D01*
Y9429D01*
Y9427D01*
Y9425D01*
Y9424D01*
Y9422D01*
Y9421D01*
X5682D01*
Y9419D01*
Y9417D01*
Y9416D01*
Y9414D01*
Y9413D01*
X5683D01*
Y9411D01*
X5680D01*
Y9409D01*
Y9408D01*
Y9406D01*
Y9405D01*
Y9403D01*
X5678D01*
Y9401D01*
Y9400D01*
Y9398D01*
Y9397D01*
Y9395D01*
Y9393D01*
X5677D01*
Y9392D01*
Y9390D01*
Y9389D01*
Y9387D01*
Y9385D01*
X5675D01*
Y9384D01*
Y9382D01*
Y9381D01*
Y9379D01*
Y9378D01*
X5674D01*
Y9376D01*
Y9374D01*
Y9373D01*
Y9371D01*
Y9370D01*
Y9368D01*
X5670D01*
Y9366D01*
Y9365D01*
Y9363D01*
Y9362D01*
Y9360D01*
X5669D01*
Y9358D01*
Y9357D01*
Y9355D01*
Y9354D01*
Y9352D01*
Y9350D01*
X5667D01*
Y9349D01*
Y9347D01*
Y9346D01*
Y9344D01*
Y9342D01*
Y9341D01*
X5666D01*
Y9339D01*
Y9338D01*
Y9336D01*
Y9334D01*
X5664D01*
Y9333D01*
Y9331D01*
Y9330D01*
Y9328D01*
Y9327D01*
Y9325D01*
X5661D01*
Y9323D01*
Y9322D01*
Y9320D01*
Y9319D01*
X5662D01*
Y9317D01*
X5659D01*
Y9315D01*
Y9314D01*
Y9312D01*
Y9311D01*
Y9309D01*
Y9307D01*
X5658D01*
Y9306D01*
Y9304D01*
Y9303D01*
Y9301D01*
Y9299D01*
Y9298D01*
X5656D01*
Y9296D01*
Y9295D01*
Y9293D01*
Y9291D01*
X5654D01*
Y9290D01*
Y9288D01*
Y9287D01*
Y9285D01*
Y9283D01*
Y9282D01*
X5653D01*
Y9280D01*
Y9279D01*
Y9277D01*
Y9276D01*
Y9274D01*
X5650D01*
Y9272D01*
Y9271D01*
Y9269D01*
Y9268D01*
Y9266D01*
X5651D01*
Y9264D01*
X5648D01*
Y9263D01*
Y9261D01*
Y9260D01*
Y9258D01*
Y9256D01*
X5646D01*
Y9255D01*
Y9253D01*
Y9252D01*
Y9250D01*
Y9248D01*
Y9247D01*
X5645D01*
Y9245D01*
Y9244D01*
Y9242D01*
Y9240D01*
Y9239D01*
Y9237D01*
X5643D01*
Y9236D01*
Y9234D01*
Y9232D01*
Y9231D01*
X5642D01*
Y9229D01*
X5640D01*
Y9228D01*
Y9226D01*
Y9224D01*
Y9223D01*
X5642D01*
Y9221D01*
X5638D01*
Y9220D01*
Y9218D01*
Y9217D01*
Y9215D01*
Y9213D01*
Y9212D01*
X5637D01*
Y9210D01*
Y9209D01*
Y9207D01*
Y9205D01*
Y9204D01*
X5635D01*
Y9202D01*
Y9201D01*
Y9199D01*
Y9197D01*
Y9196D01*
Y9194D01*
X5634D01*
Y9193D01*
Y9191D01*
Y9189D01*
Y9188D01*
Y9186D01*
Y9185D01*
X5632D01*
Y9183D01*
Y9181D01*
Y9180D01*
Y9178D01*
X5629D01*
Y9177D01*
Y9175D01*
Y9173D01*
Y9172D01*
Y9170D01*
X5631D01*
Y9169D01*
X5627D01*
Y9167D01*
Y9166D01*
Y9164D01*
Y9162D01*
Y9161D01*
X5626D01*
Y9159D01*
Y9158D01*
Y9156D01*
Y9154D01*
Y9153D01*
Y9151D01*
X5624D01*
Y9150D01*
Y9148D01*
Y9146D01*
Y9145D01*
Y9143D01*
X5623D01*
Y9142D01*
Y9140D01*
Y9138D01*
Y9137D01*
Y9135D01*
X5621D01*
Y9134D01*
X5619D01*
Y9132D01*
Y9130D01*
Y9129D01*
Y9127D01*
X5621D01*
Y9126D01*
X5618D01*
Y9124D01*
Y9122D01*
Y9121D01*
Y9119D01*
Y9118D01*
X5616D01*
Y9116D01*
Y9115D01*
Y9113D01*
Y9111D01*
Y9110D01*
Y9108D01*
X5615D01*
Y9107D01*
Y9105D01*
Y9103D01*
Y9102D01*
Y9100D01*
Y9099D01*
X5613D01*
Y9097D01*
Y9095D01*
Y9094D01*
Y9092D01*
Y9091D01*
X5611D01*
Y9089D01*
Y9087D01*
Y9086D01*
Y9084D01*
Y9083D01*
Y9081D01*
X5608D01*
Y9079D01*
Y9078D01*
Y9076D01*
X5610D01*
Y9075D01*
X5607D01*
Y9073D01*
Y9071D01*
Y9070D01*
Y9068D01*
Y9067D01*
Y9065D01*
X5605D01*
Y9064D01*
Y9062D01*
Y9060D01*
Y9059D01*
Y9057D01*
X5603D01*
Y9056D01*
Y9054D01*
Y9052D01*
Y9051D01*
Y9049D01*
Y9048D01*
X5602D01*
Y9046D01*
Y9044D01*
Y9043D01*
Y9041D01*
Y9040D01*
Y9038D01*
X5600D01*
Y9036D01*
Y9035D01*
Y9033D01*
Y9032D01*
X5597D01*
Y9030D01*
Y9028D01*
Y9027D01*
Y9025D01*
Y9024D01*
Y9022D01*
X5595D01*
Y9020D01*
Y9019D01*
Y9017D01*
Y9016D01*
Y9014D01*
Y9013D01*
X5594D01*
Y9011D01*
Y9009D01*
Y9008D01*
Y9006D01*
Y9005D01*
X5592D01*
Y9003D01*
Y9001D01*
Y9000D01*
Y8998D01*
Y8997D01*
Y8995D01*
X5591D01*
Y8993D01*
Y8992D01*
X5560D01*
Y8993D01*
Y8995D01*
X5559D01*
Y8997D01*
Y8998D01*
Y9000D01*
Y9001D01*
Y9003D01*
X5557D01*
Y9005D01*
Y9006D01*
Y9008D01*
Y9009D01*
Y9011D01*
Y9013D01*
X5554D01*
Y9014D01*
Y9016D01*
Y9017D01*
Y9019D01*
Y9020D01*
X5552D01*
Y9022D01*
Y9024D01*
Y9025D01*
Y9027D01*
X5551D01*
Y9028D01*
Y9030D01*
Y9032D01*
Y9033D01*
Y9035D01*
Y9036D01*
X5549D01*
Y9038D01*
Y9040D01*
Y9041D01*
Y9043D01*
Y9044D01*
X5548D01*
Y9046D01*
Y9048D01*
Y9049D01*
Y9051D01*
Y9052D01*
X5544D01*
Y9054D01*
X5546D01*
Y9056D01*
Y9057D01*
Y9059D01*
Y9060D01*
X5543D01*
Y9062D01*
Y9064D01*
Y9065D01*
Y9067D01*
Y9068D01*
X5541D01*
Y9070D01*
Y9071D01*
Y9073D01*
Y9075D01*
Y9076D01*
Y9078D01*
X5540D01*
Y9079D01*
Y9081D01*
Y9083D01*
Y9084D01*
Y9086D01*
X5538D01*
Y9087D01*
Y9089D01*
Y9091D01*
Y9092D01*
Y9094D01*
X5536D01*
Y9095D01*
Y9097D01*
Y9099D01*
Y9100D01*
Y9102D01*
X5533D01*
Y9103D01*
Y9105D01*
Y9107D01*
Y9108D01*
Y9110D01*
X5532D01*
Y9111D01*
Y9113D01*
Y9115D01*
Y9116D01*
Y9118D01*
X5530D01*
Y9119D01*
Y9121D01*
Y9122D01*
Y9124D01*
Y9126D01*
Y9127D01*
X5529D01*
Y9129D01*
Y9130D01*
Y9132D01*
Y9134D01*
Y9135D01*
X5527D01*
Y9137D01*
Y9138D01*
Y9140D01*
Y9142D01*
X5522D01*
Y9140D01*
Y9138D01*
X5521D01*
Y9137D01*
Y9135D01*
Y9134D01*
Y9132D01*
Y9130D01*
X5519D01*
Y9129D01*
Y9127D01*
Y9126D01*
Y9124D01*
Y9122D01*
X5517D01*
Y9121D01*
Y9119D01*
Y9118D01*
Y9116D01*
Y9115D01*
X5516D01*
Y9113D01*
X5514D01*
Y9111D01*
Y9110D01*
Y9108D01*
X5516D01*
Y9107D01*
X5513D01*
Y9105D01*
Y9103D01*
Y9102D01*
Y9100D01*
Y9099D01*
X5511D01*
Y9097D01*
Y9095D01*
Y9094D01*
Y9092D01*
Y9091D01*
Y9089D01*
X5509D01*
Y9087D01*
Y9086D01*
Y9084D01*
Y9083D01*
Y9081D01*
X5508D01*
Y9079D01*
Y9078D01*
Y9076D01*
Y9075D01*
Y9073D01*
X5506D01*
Y9071D01*
Y9070D01*
Y9068D01*
Y9067D01*
Y9065D01*
X5503D01*
Y9064D01*
Y9062D01*
Y9060D01*
Y9059D01*
Y9057D01*
X5501D01*
Y9056D01*
Y9054D01*
Y9052D01*
Y9051D01*
Y9049D01*
Y9048D01*
X5500D01*
Y9046D01*
Y9044D01*
Y9043D01*
Y9041D01*
Y9040D01*
X5498D01*
Y9038D01*
Y9036D01*
Y9035D01*
Y9033D01*
Y9032D01*
X5497D01*
Y9030D01*
Y9028D01*
Y9027D01*
Y9025D01*
Y9024D01*
X5493D01*
Y9022D01*
Y9020D01*
Y9019D01*
Y9017D01*
X5495D01*
Y9016D01*
X5492D01*
Y9014D01*
Y9013D01*
Y9011D01*
Y9009D01*
Y9008D01*
Y9006D01*
X5490D01*
Y9005D01*
Y9003D01*
Y9001D01*
Y9000D01*
X5489D01*
Y8998D01*
Y8997D01*
Y8995D01*
Y8993D01*
X5487D01*
Y8992D01*
X5458D01*
Y8993D01*
X5457D01*
Y8995D01*
Y8997D01*
Y8998D01*
Y9000D01*
Y9001D01*
Y9003D01*
X5455D01*
Y9005D01*
Y9006D01*
Y9008D01*
Y9009D01*
Y9011D01*
Y9013D01*
Y9014D01*
Y9016D01*
X5454D01*
Y9017D01*
Y9019D01*
Y9020D01*
Y9022D01*
Y9024D01*
Y9025D01*
Y9027D01*
Y9028D01*
X5452D01*
Y9030D01*
Y9032D01*
Y9033D01*
Y9035D01*
Y9036D01*
Y9038D01*
Y9040D01*
X5449D01*
Y9041D01*
Y9043D01*
Y9044D01*
Y9046D01*
Y9048D01*
Y9049D01*
Y9051D01*
Y9052D01*
Y9054D01*
X5447D01*
Y9056D01*
Y9057D01*
Y9059D01*
Y9060D01*
Y9062D01*
Y9064D01*
Y9065D01*
Y9067D01*
X5446D01*
Y9068D01*
Y9070D01*
Y9071D01*
Y9073D01*
Y9075D01*
Y9076D01*
Y9078D01*
X5444D01*
Y9079D01*
Y9081D01*
Y9083D01*
Y9084D01*
Y9086D01*
Y9087D01*
Y9089D01*
Y9091D01*
X5442D01*
Y9092D01*
Y9094D01*
Y9095D01*
Y9097D01*
Y9099D01*
Y9100D01*
Y9102D01*
Y9103D01*
Y9105D01*
X5439D01*
Y9107D01*
Y9108D01*
Y9110D01*
Y9111D01*
Y9113D01*
Y9115D01*
Y9116D01*
Y9118D01*
X5438D01*
Y9119D01*
Y9121D01*
Y9122D01*
Y9124D01*
Y9126D01*
Y9127D01*
Y9129D01*
X5436D01*
Y9130D01*
Y9132D01*
Y9134D01*
Y9135D01*
Y9137D01*
Y9138D01*
Y9140D01*
Y9142D01*
X5434D01*
Y9143D01*
Y9145D01*
Y9146D01*
Y9148D01*
Y9150D01*
Y9151D01*
Y9153D01*
X5433D01*
Y9154D01*
Y9156D01*
Y9158D01*
Y9159D01*
Y9161D01*
Y9162D01*
Y9164D01*
Y9166D01*
Y9167D01*
X5431D01*
Y9169D01*
Y9170D01*
Y9172D01*
Y9173D01*
Y9175D01*
Y9177D01*
Y9178D01*
Y9180D01*
X5428D01*
Y9181D01*
Y9183D01*
Y9185D01*
Y9186D01*
Y9188D01*
Y9189D01*
Y9191D01*
Y9193D01*
X5427D01*
Y9194D01*
Y9196D01*
Y9197D01*
Y9199D01*
Y9201D01*
Y9202D01*
Y9204D01*
X5425D01*
Y9205D01*
Y9207D01*
Y9209D01*
Y9210D01*
Y9212D01*
Y9213D01*
Y9215D01*
Y9217D01*
X5423D01*
Y9218D01*
Y9220D01*
Y9221D01*
Y9223D01*
Y9224D01*
Y9226D01*
Y9228D01*
Y9229D01*
Y9231D01*
X5422D01*
Y9232D01*
Y9234D01*
Y9236D01*
Y9237D01*
Y9239D01*
Y9240D01*
Y9242D01*
X5419D01*
Y9244D01*
Y9245D01*
X5450D01*
Y9244D01*
Y9242D01*
Y9240D01*
Y9239D01*
Y9237D01*
Y9236D01*
Y9234D01*
X5454D01*
Y9232D01*
X5452D01*
Y9231D01*
Y9229D01*
Y9228D01*
Y9226D01*
Y9224D01*
Y9223D01*
Y9221D01*
Y9220D01*
X5454D01*
Y9218D01*
X5455D01*
Y9217D01*
Y9215D01*
Y9213D01*
Y9212D01*
Y9210D01*
Y9209D01*
Y9207D01*
Y9205D01*
Y9204D01*
Y9202D01*
X5457D01*
Y9201D01*
Y9199D01*
Y9197D01*
Y9196D01*
Y9194D01*
Y9193D01*
Y9191D01*
Y9189D01*
Y9188D01*
Y9186D01*
X5458D01*
Y9185D01*
Y9183D01*
Y9181D01*
Y9180D01*
Y9178D01*
Y9177D01*
Y9175D01*
Y9173D01*
Y9172D01*
Y9170D01*
X5460D01*
Y9169D01*
Y9167D01*
Y9166D01*
Y9164D01*
Y9162D01*
Y9161D01*
Y9159D01*
Y9158D01*
Y9156D01*
Y9154D01*
X5462D01*
Y9153D01*
Y9151D01*
Y9150D01*
Y9148D01*
Y9146D01*
Y9145D01*
Y9143D01*
Y9142D01*
Y9140D01*
X5465D01*
Y9138D01*
Y9137D01*
Y9135D01*
Y9134D01*
Y9132D01*
Y9130D01*
Y9129D01*
Y9127D01*
Y9126D01*
Y9124D01*
Y9122D01*
X5466D01*
Y9121D01*
Y9119D01*
Y9118D01*
Y9116D01*
Y9115D01*
Y9113D01*
Y9111D01*
Y9110D01*
Y9108D01*
X5468D01*
Y9107D01*
Y9105D01*
Y9103D01*
Y9102D01*
Y9100D01*
Y9099D01*
Y9097D01*
Y9095D01*
Y9094D01*
Y9092D01*
Y9091D01*
X5470D01*
Y9089D01*
Y9087D01*
Y9086D01*
Y9084D01*
Y9083D01*
Y9081D01*
Y9079D01*
Y9078D01*
Y9076D01*
X5471D01*
Y9075D01*
Y9073D01*
Y9071D01*
Y9070D01*
Y9068D01*
Y9067D01*
Y9065D01*
Y9064D01*
Y9062D01*
Y9060D01*
Y9059D01*
X5474D01*
Y9057D01*
X5473D01*
Y9056D01*
Y9054D01*
Y9052D01*
Y9051D01*
Y9049D01*
Y9048D01*
Y9046D01*
Y9044D01*
X5476D01*
Y9043D01*
Y9041D01*
X5479D01*
Y9043D01*
Y9044D01*
Y9046D01*
Y9048D01*
Y9049D01*
Y9051D01*
X5481D01*
Y9052D01*
Y9054D01*
Y9056D01*
Y9057D01*
Y9059D01*
X5484D01*
Y9060D01*
Y9062D01*
Y9064D01*
Y9065D01*
Y9067D01*
X5482D01*
Y9068D01*
X5485D01*
Y9070D01*
Y9071D01*
Y9073D01*
Y9075D01*
Y9076D01*
Y9078D01*
X5487D01*
Y9079D01*
Y9081D01*
Y9083D01*
Y9084D01*
Y9086D01*
Y9087D01*
X5489D01*
Y9089D01*
Y9091D01*
Y9092D01*
Y9094D01*
X5490D01*
Y9095D01*
Y9097D01*
Y9099D01*
Y9100D01*
Y9102D01*
Y9103D01*
X5492D01*
Y9105D01*
X5493D01*
Y9107D01*
Y9108D01*
Y9110D01*
Y9111D01*
X5492D01*
Y9113D01*
X5495D01*
Y9115D01*
Y9116D01*
Y9118D01*
Y9119D01*
Y9121D01*
X5497D01*
Y9122D01*
Y9124D01*
Y9126D01*
Y9127D01*
Y9129D01*
Y9130D01*
X5498D01*
Y9132D01*
Y9134D01*
Y9135D01*
Y9137D01*
Y9138D01*
Y9140D01*
X5500D01*
Y9142D01*
Y9143D01*
Y9145D01*
Y9146D01*
Y9148D01*
Y9150D01*
X5501D01*
Y9151D01*
Y9153D01*
Y9154D01*
Y9156D01*
X5505D01*
Y9158D01*
Y9159D01*
Y9161D01*
Y9162D01*
Y9164D01*
X5503D01*
Y9166D01*
X5506D01*
Y9167D01*
Y9169D01*
Y9170D01*
Y9172D01*
Y9173D01*
Y9175D01*
X5541D01*
Y9173D01*
Y9172D01*
Y9170D01*
Y9169D01*
X5543D01*
Y9167D01*
Y9166D01*
Y9164D01*
Y9162D01*
Y9161D01*
Y9159D01*
X5544D01*
Y9158D01*
Y9156D01*
Y9154D01*
Y9153D01*
Y9151D01*
X5548D01*
Y9150D01*
X5546D01*
Y9148D01*
Y9146D01*
Y9145D01*
Y9143D01*
Y9142D01*
X5549D01*
Y9140D01*
Y9138D01*
Y9137D01*
Y9135D01*
Y9134D01*
Y9132D01*
X5551D01*
Y9130D01*
Y9129D01*
Y9127D01*
Y9126D01*
Y9124D01*
X5552D01*
Y9122D01*
Y9121D01*
Y9119D01*
Y9118D01*
Y9116D01*
Y9115D01*
X5554D01*
Y9113D01*
Y9111D01*
Y9110D01*
Y9108D01*
Y9107D01*
X5556D01*
Y9105D01*
Y9103D01*
Y9102D01*
Y9100D01*
Y9099D01*
X5559D01*
Y9097D01*
Y9095D01*
Y9094D01*
Y9092D01*
Y9091D01*
Y9089D01*
X5560D01*
Y9087D01*
Y9086D01*
Y9084D01*
Y9083D01*
Y9081D01*
Y9079D01*
X5562D01*
Y9078D01*
Y9076D01*
Y9075D01*
Y9073D01*
Y9071D01*
X5564D01*
Y9070D01*
Y9068D01*
Y9067D01*
Y9065D01*
Y9064D01*
Y9062D01*
X5565D01*
Y9060D01*
Y9059D01*
Y9057D01*
Y9056D01*
Y9054D01*
X5567D01*
Y9052D01*
X5568D01*
Y9051D01*
X5567D01*
Y9049D01*
Y9048D01*
Y9046D01*
X5570D01*
Y9044D01*
Y9043D01*
Y9041D01*
Y9040D01*
X5573D01*
Y9041D01*
Y9043D01*
Y9044D01*
Y9046D01*
X5575D01*
Y9048D01*
Y9049D01*
Y9051D01*
Y9052D01*
Y9054D01*
Y9056D01*
X5578D01*
Y9057D01*
Y9059D01*
Y9060D01*
Y9062D01*
Y9064D01*
Y9065D01*
X5580D01*
Y9067D01*
Y9068D01*
Y9070D01*
Y9071D01*
Y9073D01*
X5581D01*
Y9075D01*
Y9076D01*
Y9078D01*
Y9079D01*
Y9081D01*
X5583D01*
Y9083D01*
Y9084D01*
Y9086D01*
Y9087D01*
Y9089D01*
Y9091D01*
X5584D01*
Y9092D01*
Y9094D01*
Y9095D01*
Y9097D01*
Y9099D01*
Y9100D01*
X5587D01*
Y9102D01*
Y9103D01*
Y9105D01*
Y9107D01*
Y9108D01*
X5586D01*
Y9110D01*
X5589D01*
Y9111D01*
Y9113D01*
Y9115D01*
Y9116D01*
Y9118D01*
Y9119D01*
X5591D01*
Y9121D01*
Y9122D01*
Y9124D01*
Y9126D01*
Y9127D01*
X5592D01*
Y9129D01*
Y9130D01*
Y9132D01*
Y9134D01*
Y9135D01*
X5594D01*
Y9137D01*
Y9138D01*
Y9140D01*
Y9142D01*
Y9143D01*
Y9145D01*
X5595D01*
Y9146D01*
Y9148D01*
Y9150D01*
Y9151D01*
Y9153D01*
Y9154D01*
X5599D01*
Y9156D01*
Y9158D01*
Y9159D01*
Y9161D01*
X5597D01*
Y9162D01*
X5600D01*
Y9164D01*
Y9166D01*
Y9167D01*
Y9169D01*
Y9170D01*
Y9172D01*
X5602D01*
Y9173D01*
Y9175D01*
Y9177D01*
Y9178D01*
Y9180D01*
Y9181D01*
X5603D01*
Y9183D01*
Y9185D01*
Y9186D01*
Y9188D01*
Y9189D01*
Y9191D01*
X5605D01*
Y9193D01*
Y9194D01*
Y9196D01*
Y9197D01*
Y9199D01*
Y9201D01*
X5607D01*
Y9202D01*
Y9204D01*
Y9205D01*
Y9207D01*
Y9209D01*
X5608D01*
Y9210D01*
X5610D01*
Y9212D01*
Y9213D01*
Y9215D01*
Y9217D01*
X5611D01*
Y9218D01*
Y9220D01*
Y9221D01*
Y9223D01*
Y9224D01*
Y9226D01*
X5613D01*
Y9228D01*
Y9229D01*
Y9231D01*
Y9232D01*
Y9234D01*
Y9236D01*
X5615D01*
Y9237D01*
Y9239D01*
Y9240D01*
Y9242D01*
Y9244D01*
Y9245D01*
X5616D01*
Y9247D01*
Y9248D01*
Y9250D01*
Y9252D01*
Y9253D01*
X5619D01*
Y9255D01*
Y9256D01*
Y9258D01*
Y9260D01*
Y9261D01*
Y9263D01*
X5621D01*
Y9264D01*
Y9266D01*
Y9268D01*
Y9269D01*
Y9271D01*
X5623D01*
Y9272D01*
Y9274D01*
Y9276D01*
Y9277D01*
Y9279D01*
Y9280D01*
X5624D01*
Y9282D01*
Y9283D01*
Y9285D01*
Y9287D01*
Y9288D01*
Y9290D01*
X5626D01*
Y9291D01*
Y9293D01*
Y9295D01*
Y9296D01*
Y9298D01*
X5627D01*
Y9299D01*
Y9301D01*
Y9303D01*
Y9304D01*
Y9306D01*
Y9307D01*
X5631D01*
Y9309D01*
Y9311D01*
Y9312D01*
Y9314D01*
Y9315D01*
Y9317D01*
X5632D01*
Y9319D01*
Y9320D01*
Y9322D01*
Y9323D01*
Y9325D01*
Y9327D01*
X5634D01*
Y9328D01*
Y9330D01*
Y9331D01*
Y9333D01*
Y9334D01*
Y9336D01*
X5635D01*
Y9338D01*
Y9339D01*
Y9341D01*
Y9342D01*
X5637D01*
Y9344D01*
Y9346D01*
Y9347D01*
Y9349D01*
Y9350D01*
Y9352D01*
X5640D01*
Y9354D01*
Y9355D01*
Y9357D01*
Y9358D01*
Y9360D01*
X5638D01*
Y9362D01*
X5642D01*
Y9363D01*
Y9365D01*
Y9366D01*
Y9368D01*
Y9370D01*
Y9371D01*
X5643D01*
Y9373D01*
Y9374D01*
Y9376D01*
Y9378D01*
Y9379D01*
X5645D01*
Y9381D01*
Y9382D01*
Y9384D01*
Y9385D01*
Y9387D01*
Y9389D01*
X5646D01*
Y9390D01*
Y9392D01*
Y9393D01*
Y9395D01*
Y9397D01*
Y9398D01*
X5648D01*
Y9400D01*
Y9401D01*
Y9403D01*
Y9405D01*
Y9406D01*
X5651D01*
Y9408D01*
Y9409D01*
Y9411D01*
Y9413D01*
Y9414D01*
Y9416D01*
X5653D01*
Y9417D01*
Y9419D01*
Y9421D01*
Y9422D01*
Y9424D01*
X5654D01*
Y9425D01*
Y9427D01*
Y9429D01*
Y9430D01*
Y9432D01*
Y9433D01*
X5656D01*
Y9435D01*
Y9436D01*
X5686D01*
Y9435D01*
D02*
G37*
G36*
X4902Y9248D02*
X4912D01*
Y9247D01*
X4916D01*
Y9245D01*
X4923D01*
Y9244D01*
X4926D01*
Y9242D01*
X4929D01*
Y9240D01*
X4931D01*
Y9239D01*
X4932D01*
Y9237D01*
X4936D01*
Y9236D01*
X4937D01*
Y9234D01*
X4940D01*
Y9232D01*
X4942D01*
Y9231D01*
Y9229D01*
X4944D01*
Y9228D01*
X4945D01*
Y9226D01*
X4947D01*
Y9224D01*
X4948D01*
Y9223D01*
Y9221D01*
X4950D01*
Y9220D01*
X4952D01*
Y9218D01*
X4953D01*
Y9217D01*
Y9215D01*
X4955D01*
Y9213D01*
Y9212D01*
X4956D01*
Y9210D01*
Y9209D01*
Y9207D01*
X4958D01*
Y9205D01*
Y9204D01*
X4959D01*
Y9202D01*
Y9201D01*
X4963D01*
Y9199D01*
Y9197D01*
X4961D01*
Y9196D01*
Y9194D01*
X4964D01*
Y9193D01*
Y9191D01*
Y9189D01*
Y9188D01*
X4966D01*
Y9186D01*
Y9185D01*
Y9183D01*
Y9181D01*
X4967D01*
Y9180D01*
Y9178D01*
Y9177D01*
Y9175D01*
Y9173D01*
X4969D01*
Y9172D01*
Y9170D01*
Y9169D01*
Y9167D01*
Y9166D01*
Y9164D01*
Y9162D01*
X4972D01*
Y9161D01*
X4971D01*
Y9159D01*
Y9158D01*
Y9156D01*
Y9154D01*
Y9153D01*
Y9151D01*
Y9150D01*
Y9148D01*
Y9146D01*
Y9145D01*
Y9143D01*
X4974D01*
Y9142D01*
Y9140D01*
Y9138D01*
Y9137D01*
Y9135D01*
Y9134D01*
Y9132D01*
Y9130D01*
Y9129D01*
Y9127D01*
Y9126D01*
Y9124D01*
Y9122D01*
Y9121D01*
Y9119D01*
Y9118D01*
Y9116D01*
Y9115D01*
Y9113D01*
Y9111D01*
Y9110D01*
Y9108D01*
Y9107D01*
Y9105D01*
Y9103D01*
Y9102D01*
Y9100D01*
Y9099D01*
Y9097D01*
Y9095D01*
X4971D01*
Y9094D01*
Y9092D01*
Y9091D01*
Y9089D01*
Y9087D01*
Y9086D01*
Y9084D01*
Y9083D01*
Y9081D01*
Y9079D01*
Y9078D01*
X4972D01*
Y9076D01*
X4969D01*
Y9075D01*
Y9073D01*
Y9071D01*
Y9070D01*
Y9068D01*
Y9067D01*
Y9065D01*
X4967D01*
Y9064D01*
Y9062D01*
Y9060D01*
Y9059D01*
Y9057D01*
Y9056D01*
X4966D01*
Y9054D01*
Y9052D01*
Y9051D01*
Y9049D01*
X4964D01*
Y9048D01*
Y9046D01*
Y9044D01*
Y9043D01*
X4963D01*
Y9041D01*
Y9040D01*
Y9038D01*
X4959D01*
Y9036D01*
Y9035D01*
Y9033D01*
X4958D01*
Y9032D01*
Y9030D01*
Y9028D01*
X4956D01*
Y9027D01*
Y9025D01*
X4955D01*
Y9024D01*
X4953D01*
Y9022D01*
Y9020D01*
X4952D01*
Y9019D01*
X4950D01*
Y9017D01*
X4952D01*
Y9016D01*
X4950D01*
Y9014D01*
X4947D01*
Y9013D01*
X4945D01*
Y9011D01*
X4944D01*
Y9009D01*
Y9008D01*
X4942D01*
Y9006D01*
X4940D01*
Y9005D01*
X4937D01*
Y9003D01*
X4936D01*
Y9001D01*
X4934D01*
Y9000D01*
X4931D01*
Y8998D01*
Y8997D01*
X4926D01*
Y8995D01*
X4923D01*
Y8993D01*
X4920D01*
Y8992D01*
X4913D01*
Y8990D01*
X4907D01*
Y8989D01*
X4905D01*
Y8987D01*
X4872D01*
Y8989D01*
Y8990D01*
X4864D01*
Y8992D01*
X4859D01*
Y8993D01*
X4854D01*
Y8995D01*
X4851D01*
Y8997D01*
X4848D01*
Y8998D01*
X4846D01*
Y9000D01*
X4843D01*
Y9001D01*
X4842D01*
Y9003D01*
X4840D01*
Y9005D01*
X4838D01*
Y9006D01*
X4837D01*
Y9008D01*
X4834D01*
Y9009D01*
Y9011D01*
X4832D01*
Y9013D01*
X4830D01*
Y9014D01*
X4829D01*
Y9016D01*
X4827D01*
Y9017D01*
Y9019D01*
X4826D01*
Y9020D01*
X4824D01*
Y9022D01*
X4822D01*
Y9024D01*
Y9025D01*
X4821D01*
Y9027D01*
Y9028D01*
X4819D01*
Y9030D01*
Y9032D01*
Y9033D01*
X4818D01*
Y9035D01*
Y9036D01*
X4816D01*
Y9038D01*
Y9040D01*
Y9041D01*
Y9043D01*
X4813D01*
Y9044D01*
X4814D01*
Y9046D01*
Y9048D01*
Y9049D01*
X4811D01*
Y9051D01*
Y9052D01*
Y9054D01*
Y9056D01*
Y9057D01*
X4810D01*
Y9059D01*
Y9060D01*
Y9062D01*
Y9064D01*
Y9065D01*
X4808D01*
Y9067D01*
Y9068D01*
Y9070D01*
Y9071D01*
Y9073D01*
Y9075D01*
Y9076D01*
X4806D01*
Y9078D01*
Y9079D01*
Y9081D01*
Y9083D01*
Y9084D01*
Y9086D01*
Y9087D01*
Y9089D01*
Y9091D01*
Y9092D01*
Y9094D01*
Y9095D01*
X4805D01*
Y9097D01*
Y9099D01*
Y9100D01*
Y9102D01*
Y9103D01*
Y9105D01*
Y9107D01*
Y9108D01*
Y9110D01*
Y9111D01*
Y9113D01*
Y9115D01*
Y9116D01*
Y9118D01*
Y9119D01*
Y9121D01*
Y9122D01*
Y9124D01*
Y9126D01*
Y9127D01*
Y9129D01*
Y9130D01*
Y9132D01*
Y9134D01*
Y9135D01*
Y9137D01*
Y9138D01*
Y9140D01*
X4803D01*
Y9142D01*
X4806D01*
Y9143D01*
Y9145D01*
Y9146D01*
Y9148D01*
Y9150D01*
Y9151D01*
Y9153D01*
Y9154D01*
Y9156D01*
Y9158D01*
Y9159D01*
Y9161D01*
X4808D01*
Y9162D01*
Y9164D01*
Y9166D01*
Y9167D01*
Y9169D01*
Y9170D01*
Y9172D01*
X4810D01*
Y9173D01*
Y9175D01*
Y9177D01*
Y9178D01*
Y9180D01*
Y9181D01*
X4811D01*
Y9183D01*
Y9185D01*
Y9186D01*
Y9188D01*
X4813D01*
Y9189D01*
X4814D01*
Y9191D01*
Y9193D01*
X4813D01*
Y9194D01*
X4816D01*
Y9196D01*
Y9197D01*
Y9199D01*
Y9201D01*
X4818D01*
Y9202D01*
Y9204D01*
X4819D01*
Y9205D01*
Y9207D01*
Y9209D01*
X4821D01*
Y9210D01*
Y9212D01*
Y9213D01*
X4822D01*
Y9215D01*
X4826D01*
Y9217D01*
Y9218D01*
Y9220D01*
X4827D01*
Y9221D01*
X4829D01*
Y9223D01*
Y9224D01*
X4830D01*
Y9226D01*
X4832D01*
Y9228D01*
X4834D01*
Y9229D01*
X4835D01*
Y9231D01*
X4837D01*
Y9232D01*
X4838D01*
Y9234D01*
X4840D01*
Y9236D01*
X4842D01*
Y9237D01*
X4845D01*
Y9239D01*
X4846D01*
Y9240D01*
X4848D01*
Y9242D01*
X4851D01*
Y9244D01*
X4854D01*
Y9245D01*
X4861D01*
Y9247D01*
X4865D01*
Y9248D01*
X4875D01*
Y9250D01*
X4902D01*
Y9248D01*
D02*
G37*
G36*
X5764Y9371D02*
Y9370D01*
Y9368D01*
Y9366D01*
Y9365D01*
Y9363D01*
Y9362D01*
Y9360D01*
Y9358D01*
Y9357D01*
Y9355D01*
Y9354D01*
Y9352D01*
Y9350D01*
Y9349D01*
Y9347D01*
Y9346D01*
Y9344D01*
Y9342D01*
Y9341D01*
Y9339D01*
Y9338D01*
Y9336D01*
Y9334D01*
Y9333D01*
Y9331D01*
Y9330D01*
Y9328D01*
Y9327D01*
Y9325D01*
Y9323D01*
Y9322D01*
Y9320D01*
Y9319D01*
Y9317D01*
Y9315D01*
Y9314D01*
Y9312D01*
Y9311D01*
Y9309D01*
Y9307D01*
Y9306D01*
Y9304D01*
Y9303D01*
Y9301D01*
Y9299D01*
Y9298D01*
Y9296D01*
Y9295D01*
Y9293D01*
Y9291D01*
Y9290D01*
Y9288D01*
Y9287D01*
Y9285D01*
Y9283D01*
Y9282D01*
Y9280D01*
Y9279D01*
Y9277D01*
Y9276D01*
Y9274D01*
Y9272D01*
Y9271D01*
Y9269D01*
Y9268D01*
Y9266D01*
Y9264D01*
Y9263D01*
Y9261D01*
Y9260D01*
Y9258D01*
Y9256D01*
Y9255D01*
Y9253D01*
Y9252D01*
Y9250D01*
Y9248D01*
Y9247D01*
Y9245D01*
Y9244D01*
Y9242D01*
Y9240D01*
Y9239D01*
Y9237D01*
Y9236D01*
Y9234D01*
Y9232D01*
Y9231D01*
Y9229D01*
Y9228D01*
Y9226D01*
Y9224D01*
Y9223D01*
Y9221D01*
Y9220D01*
Y9218D01*
Y9217D01*
Y9215D01*
Y9213D01*
Y9212D01*
Y9210D01*
Y9209D01*
Y9207D01*
Y9205D01*
Y9204D01*
Y9202D01*
Y9201D01*
Y9199D01*
Y9197D01*
Y9196D01*
Y9194D01*
Y9193D01*
Y9191D01*
Y9189D01*
Y9188D01*
Y9186D01*
Y9185D01*
Y9183D01*
Y9181D01*
Y9180D01*
Y9178D01*
Y9177D01*
Y9175D01*
Y9173D01*
Y9172D01*
Y9170D01*
Y9169D01*
Y9167D01*
Y9166D01*
Y9164D01*
Y9162D01*
Y9161D01*
Y9159D01*
Y9158D01*
Y9156D01*
Y9154D01*
Y9153D01*
Y9151D01*
Y9150D01*
Y9148D01*
Y9146D01*
Y9145D01*
Y9143D01*
Y9142D01*
Y9140D01*
Y9138D01*
Y9137D01*
Y9135D01*
Y9134D01*
Y9132D01*
Y9130D01*
Y9129D01*
Y9127D01*
Y9126D01*
Y9124D01*
Y9122D01*
Y9121D01*
Y9119D01*
Y9118D01*
Y9116D01*
Y9115D01*
Y9113D01*
Y9111D01*
Y9110D01*
Y9108D01*
Y9107D01*
Y9105D01*
Y9103D01*
Y9102D01*
Y9100D01*
Y9099D01*
Y9097D01*
Y9095D01*
Y9094D01*
Y9092D01*
Y9091D01*
Y9089D01*
Y9087D01*
Y9086D01*
Y9084D01*
Y9083D01*
Y9081D01*
Y9079D01*
Y9078D01*
Y9076D01*
Y9075D01*
Y9073D01*
Y9071D01*
Y9070D01*
Y9068D01*
Y9067D01*
Y9065D01*
Y9064D01*
Y9062D01*
Y9060D01*
Y9059D01*
Y9057D01*
Y9056D01*
Y9054D01*
Y9052D01*
Y9051D01*
Y9049D01*
Y9048D01*
Y9046D01*
Y9044D01*
Y9043D01*
Y9041D01*
Y9040D01*
Y9038D01*
Y9036D01*
Y9035D01*
Y9033D01*
Y9032D01*
Y9030D01*
Y9028D01*
Y9027D01*
Y9025D01*
Y9024D01*
Y9022D01*
Y9020D01*
Y9019D01*
Y9017D01*
Y9016D01*
Y9014D01*
Y9013D01*
Y9011D01*
Y9009D01*
Y9008D01*
Y9006D01*
Y9005D01*
Y9003D01*
Y9001D01*
Y9000D01*
Y8998D01*
Y8997D01*
Y8995D01*
Y8993D01*
Y8992D01*
Y8990D01*
Y8989D01*
Y8987D01*
Y8985D01*
Y8984D01*
Y8982D01*
Y8981D01*
Y8979D01*
Y8977D01*
Y8976D01*
Y8974D01*
Y8973D01*
Y8971D01*
Y8969D01*
Y8968D01*
Y8966D01*
Y8965D01*
Y8963D01*
Y8961D01*
Y8960D01*
Y8958D01*
Y8957D01*
Y8955D01*
Y8954D01*
Y8952D01*
Y8950D01*
Y8949D01*
Y8947D01*
Y8946D01*
Y8944D01*
Y8942D01*
Y8941D01*
Y8939D01*
Y8938D01*
Y8936D01*
Y8934D01*
Y8933D01*
Y8931D01*
Y8930D01*
Y8928D01*
Y8926D01*
Y8925D01*
Y8923D01*
Y8922D01*
Y8920D01*
Y8918D01*
Y8917D01*
Y8915D01*
Y8914D01*
Y8912D01*
Y8910D01*
Y8909D01*
Y8907D01*
Y8906D01*
Y8904D01*
Y8903D01*
Y8901D01*
Y8899D01*
Y8898D01*
Y8896D01*
Y8895D01*
Y8893D01*
Y8891D01*
Y8890D01*
Y8888D01*
Y8887D01*
Y8885D01*
Y8883D01*
Y8882D01*
Y8880D01*
Y8879D01*
Y8877D01*
Y8875D01*
X4685D01*
Y8877D01*
Y8879D01*
Y8880D01*
Y8882D01*
Y8883D01*
Y8885D01*
Y8887D01*
Y8888D01*
Y8890D01*
Y8891D01*
Y8893D01*
Y8895D01*
Y8896D01*
Y8898D01*
Y8899D01*
Y8901D01*
Y8903D01*
Y8904D01*
Y8906D01*
Y8907D01*
Y8909D01*
Y8910D01*
Y8912D01*
Y8914D01*
Y8915D01*
Y8917D01*
Y8918D01*
Y8920D01*
Y8922D01*
Y8923D01*
Y8925D01*
Y8926D01*
Y8928D01*
Y8930D01*
Y8931D01*
Y8933D01*
Y8934D01*
Y8936D01*
Y8938D01*
Y8939D01*
Y8941D01*
Y8942D01*
Y8944D01*
Y8946D01*
Y8947D01*
Y8949D01*
Y8950D01*
Y8952D01*
Y8954D01*
Y8955D01*
Y8957D01*
Y8958D01*
Y8960D01*
Y8961D01*
Y8963D01*
Y8965D01*
Y8966D01*
Y8968D01*
Y8969D01*
Y8971D01*
Y8973D01*
Y8974D01*
Y8976D01*
Y8977D01*
Y8979D01*
Y8981D01*
Y8982D01*
Y8984D01*
Y8985D01*
Y8987D01*
Y8989D01*
Y8990D01*
Y8992D01*
Y8993D01*
Y8995D01*
Y8997D01*
Y8998D01*
Y9000D01*
Y9001D01*
Y9003D01*
Y9005D01*
Y9006D01*
Y9008D01*
Y9009D01*
Y9011D01*
Y9013D01*
Y9014D01*
Y9016D01*
Y9017D01*
Y9019D01*
Y9020D01*
Y9022D01*
Y9024D01*
Y9025D01*
Y9027D01*
Y9028D01*
Y9030D01*
Y9032D01*
Y9033D01*
Y9035D01*
Y9036D01*
Y9038D01*
Y9040D01*
Y9041D01*
Y9043D01*
Y9044D01*
Y9046D01*
Y9048D01*
Y9049D01*
Y9051D01*
Y9052D01*
Y9054D01*
Y9056D01*
Y9057D01*
Y9059D01*
Y9060D01*
Y9062D01*
Y9064D01*
Y9065D01*
Y9067D01*
Y9068D01*
Y9070D01*
Y9071D01*
Y9073D01*
Y9075D01*
Y9076D01*
Y9078D01*
Y9079D01*
Y9081D01*
Y9083D01*
Y9084D01*
Y9086D01*
Y9087D01*
Y9089D01*
Y9091D01*
Y9092D01*
Y9094D01*
Y9095D01*
Y9097D01*
Y9099D01*
Y9100D01*
Y9102D01*
Y9103D01*
Y9105D01*
Y9107D01*
Y9108D01*
Y9110D01*
Y9111D01*
Y9113D01*
Y9115D01*
Y9116D01*
Y9118D01*
Y9119D01*
Y9121D01*
Y9122D01*
Y9124D01*
Y9126D01*
Y9127D01*
Y9129D01*
Y9130D01*
Y9132D01*
Y9134D01*
Y9135D01*
Y9137D01*
Y9138D01*
Y9140D01*
Y9142D01*
Y9143D01*
Y9145D01*
Y9146D01*
Y9148D01*
Y9150D01*
Y9151D01*
Y9153D01*
Y9154D01*
Y9156D01*
Y9158D01*
Y9159D01*
Y9161D01*
Y9162D01*
Y9164D01*
Y9166D01*
Y9167D01*
Y9169D01*
Y9170D01*
Y9172D01*
Y9173D01*
Y9175D01*
Y9177D01*
Y9178D01*
Y9180D01*
Y9181D01*
Y9183D01*
Y9185D01*
Y9186D01*
Y9188D01*
Y9189D01*
Y9191D01*
Y9193D01*
Y9194D01*
Y9196D01*
Y9197D01*
Y9199D01*
Y9201D01*
Y9202D01*
Y9204D01*
Y9205D01*
Y9207D01*
Y9209D01*
Y9210D01*
Y9212D01*
Y9213D01*
Y9215D01*
Y9217D01*
Y9218D01*
Y9220D01*
Y9221D01*
Y9223D01*
Y9224D01*
Y9226D01*
Y9228D01*
Y9229D01*
Y9231D01*
Y9232D01*
Y9234D01*
Y9236D01*
Y9237D01*
Y9239D01*
Y9240D01*
Y9242D01*
Y9244D01*
Y9245D01*
Y9247D01*
Y9248D01*
Y9250D01*
Y9252D01*
Y9253D01*
Y9255D01*
Y9256D01*
Y9258D01*
Y9260D01*
Y9261D01*
Y9263D01*
Y9264D01*
Y9266D01*
Y9268D01*
Y9269D01*
Y9271D01*
Y9272D01*
Y9274D01*
Y9276D01*
Y9277D01*
Y9279D01*
Y9280D01*
Y9282D01*
Y9283D01*
Y9285D01*
Y9287D01*
Y9288D01*
Y9290D01*
Y9291D01*
Y9293D01*
Y9295D01*
Y9296D01*
Y9298D01*
Y9299D01*
Y9301D01*
Y9303D01*
Y9304D01*
Y9306D01*
Y9307D01*
Y9309D01*
Y9311D01*
Y9312D01*
Y9314D01*
Y9315D01*
Y9317D01*
Y9319D01*
Y9320D01*
Y9322D01*
Y9323D01*
Y9325D01*
Y9327D01*
Y9328D01*
Y9330D01*
Y9331D01*
Y9333D01*
Y9334D01*
Y9336D01*
Y9338D01*
Y9339D01*
Y9341D01*
Y9342D01*
Y9344D01*
Y9346D01*
Y9347D01*
Y9349D01*
Y9350D01*
Y9352D01*
Y9354D01*
Y9355D01*
Y9357D01*
Y9358D01*
Y9360D01*
Y9362D01*
Y9363D01*
Y9365D01*
Y9366D01*
Y9368D01*
Y9370D01*
Y9371D01*
Y9373D01*
X5573D01*
Y9371D01*
Y9370D01*
Y9368D01*
Y9366D01*
Y9365D01*
Y9363D01*
Y9362D01*
Y9360D01*
Y9358D01*
Y9357D01*
Y9355D01*
Y9354D01*
Y9352D01*
Y9350D01*
Y9349D01*
Y9347D01*
Y9346D01*
Y9344D01*
Y9342D01*
Y9341D01*
Y9339D01*
Y9338D01*
Y9336D01*
Y9334D01*
Y9333D01*
Y9331D01*
Y9330D01*
X4727D01*
Y9328D01*
Y9327D01*
Y9325D01*
Y9323D01*
Y9322D01*
Y9320D01*
Y9319D01*
Y9317D01*
Y9315D01*
Y9314D01*
Y9312D01*
Y9311D01*
Y9309D01*
Y9307D01*
Y9306D01*
Y9304D01*
Y9303D01*
Y9301D01*
Y9299D01*
Y9298D01*
Y9296D01*
Y9295D01*
Y9293D01*
Y9291D01*
Y9290D01*
Y9288D01*
Y9287D01*
Y9285D01*
Y9283D01*
Y9282D01*
Y9280D01*
Y9279D01*
Y9277D01*
Y9276D01*
Y9274D01*
Y9272D01*
Y9271D01*
Y9269D01*
Y9268D01*
Y9266D01*
Y9264D01*
Y9263D01*
Y9261D01*
Y9260D01*
Y9258D01*
Y9256D01*
Y9255D01*
Y9253D01*
Y9252D01*
Y9250D01*
Y9248D01*
Y9247D01*
Y9245D01*
Y9244D01*
Y9242D01*
Y9240D01*
Y9239D01*
Y9237D01*
Y9236D01*
Y9234D01*
Y9232D01*
Y9231D01*
Y9229D01*
Y9228D01*
Y9226D01*
Y9224D01*
Y9223D01*
Y9221D01*
Y9220D01*
Y9218D01*
Y9217D01*
Y9215D01*
Y9213D01*
Y9212D01*
Y9210D01*
Y9209D01*
Y9207D01*
Y9205D01*
Y9204D01*
Y9202D01*
Y9201D01*
Y9199D01*
Y9197D01*
Y9196D01*
Y9194D01*
Y9193D01*
Y9191D01*
Y9189D01*
Y9188D01*
Y9186D01*
Y9185D01*
Y9183D01*
Y9181D01*
Y9180D01*
Y9178D01*
Y9177D01*
Y9175D01*
Y9173D01*
Y9172D01*
Y9170D01*
Y9169D01*
Y9167D01*
Y9166D01*
Y9164D01*
Y9162D01*
Y9161D01*
Y9159D01*
Y9158D01*
Y9156D01*
Y9154D01*
Y9153D01*
Y9151D01*
Y9150D01*
Y9148D01*
Y9146D01*
Y9145D01*
Y9143D01*
Y9142D01*
Y9140D01*
Y9138D01*
Y9137D01*
Y9135D01*
Y9134D01*
Y9132D01*
Y9130D01*
Y9129D01*
Y9127D01*
Y9126D01*
Y9124D01*
Y9122D01*
Y9121D01*
Y9119D01*
Y9118D01*
Y9116D01*
Y9115D01*
Y9113D01*
Y9111D01*
Y9110D01*
Y9108D01*
Y9107D01*
Y9105D01*
Y9103D01*
Y9102D01*
Y9100D01*
Y9099D01*
Y9097D01*
Y9095D01*
Y9094D01*
Y9092D01*
Y9091D01*
Y9089D01*
Y9087D01*
Y9086D01*
Y9084D01*
Y9083D01*
Y9081D01*
Y9079D01*
Y9078D01*
Y9076D01*
Y9075D01*
Y9073D01*
Y9071D01*
Y9070D01*
Y9068D01*
Y9067D01*
Y9065D01*
Y9064D01*
Y9062D01*
Y9060D01*
Y9059D01*
Y9057D01*
Y9056D01*
Y9054D01*
Y9052D01*
Y9051D01*
Y9049D01*
Y9048D01*
Y9046D01*
Y9044D01*
Y9043D01*
Y9041D01*
Y9040D01*
Y9038D01*
Y9036D01*
Y9035D01*
Y9033D01*
Y9032D01*
Y9030D01*
Y9028D01*
Y9027D01*
Y9025D01*
Y9024D01*
Y9022D01*
Y9020D01*
Y9019D01*
Y9017D01*
Y9016D01*
Y9014D01*
Y9013D01*
Y9011D01*
Y9009D01*
Y9008D01*
Y9006D01*
Y9005D01*
Y9003D01*
Y9001D01*
Y9000D01*
Y8998D01*
Y8997D01*
Y8995D01*
Y8993D01*
Y8992D01*
Y8990D01*
Y8989D01*
Y8987D01*
Y8985D01*
Y8984D01*
Y8982D01*
Y8981D01*
Y8979D01*
Y8977D01*
Y8976D01*
Y8974D01*
Y8973D01*
Y8971D01*
Y8969D01*
Y8968D01*
Y8966D01*
Y8965D01*
Y8963D01*
Y8961D01*
Y8960D01*
Y8958D01*
Y8957D01*
Y8955D01*
Y8954D01*
Y8952D01*
Y8950D01*
Y8949D01*
Y8947D01*
Y8946D01*
Y8944D01*
Y8942D01*
Y8941D01*
Y8939D01*
Y8938D01*
Y8936D01*
Y8934D01*
Y8933D01*
Y8931D01*
Y8930D01*
Y8928D01*
Y8926D01*
Y8925D01*
Y8923D01*
Y8922D01*
Y8920D01*
Y8918D01*
Y8917D01*
X5723D01*
Y8918D01*
X5725D01*
Y8920D01*
Y8922D01*
Y8923D01*
Y8925D01*
Y8926D01*
Y8928D01*
Y8930D01*
Y8931D01*
Y8933D01*
Y8934D01*
Y8936D01*
Y8938D01*
Y8939D01*
Y8941D01*
Y8942D01*
Y8944D01*
Y8946D01*
Y8947D01*
Y8949D01*
Y8950D01*
Y8952D01*
Y8954D01*
Y8955D01*
Y8957D01*
Y8958D01*
Y8960D01*
Y8961D01*
Y8963D01*
Y8965D01*
Y8966D01*
Y8968D01*
Y8969D01*
Y8971D01*
Y8973D01*
Y8974D01*
Y8976D01*
Y8977D01*
Y8979D01*
Y8981D01*
Y8982D01*
Y8984D01*
Y8985D01*
Y8987D01*
Y8989D01*
Y8990D01*
Y8992D01*
Y8993D01*
Y8995D01*
Y8997D01*
Y8998D01*
Y9000D01*
Y9001D01*
Y9003D01*
Y9005D01*
Y9006D01*
Y9008D01*
Y9009D01*
Y9011D01*
Y9013D01*
Y9014D01*
Y9016D01*
Y9017D01*
Y9019D01*
Y9020D01*
Y9022D01*
Y9024D01*
Y9025D01*
Y9027D01*
Y9028D01*
Y9030D01*
Y9032D01*
Y9033D01*
Y9035D01*
Y9036D01*
Y9038D01*
Y9040D01*
Y9041D01*
Y9043D01*
Y9044D01*
Y9046D01*
Y9048D01*
Y9049D01*
Y9051D01*
Y9052D01*
Y9054D01*
Y9056D01*
Y9057D01*
Y9059D01*
Y9060D01*
Y9062D01*
Y9064D01*
Y9065D01*
Y9067D01*
Y9068D01*
Y9070D01*
Y9071D01*
Y9073D01*
Y9075D01*
Y9076D01*
Y9078D01*
Y9079D01*
Y9081D01*
Y9083D01*
Y9084D01*
Y9086D01*
Y9087D01*
Y9089D01*
Y9091D01*
Y9092D01*
Y9094D01*
Y9095D01*
Y9097D01*
Y9099D01*
Y9100D01*
Y9102D01*
Y9103D01*
Y9105D01*
Y9107D01*
Y9108D01*
Y9110D01*
Y9111D01*
Y9113D01*
Y9115D01*
Y9116D01*
Y9118D01*
Y9119D01*
Y9121D01*
Y9122D01*
Y9124D01*
Y9126D01*
Y9127D01*
Y9129D01*
Y9130D01*
Y9132D01*
Y9134D01*
Y9135D01*
Y9137D01*
Y9138D01*
Y9140D01*
Y9142D01*
Y9143D01*
Y9145D01*
Y9146D01*
Y9148D01*
Y9150D01*
Y9151D01*
Y9153D01*
Y9154D01*
Y9156D01*
Y9158D01*
Y9159D01*
Y9161D01*
Y9162D01*
Y9164D01*
Y9166D01*
Y9167D01*
Y9169D01*
Y9170D01*
Y9172D01*
Y9173D01*
Y9175D01*
Y9177D01*
Y9178D01*
Y9180D01*
Y9181D01*
Y9183D01*
Y9185D01*
Y9186D01*
Y9188D01*
Y9189D01*
Y9191D01*
Y9193D01*
Y9194D01*
Y9196D01*
Y9197D01*
Y9199D01*
Y9201D01*
Y9202D01*
Y9204D01*
Y9205D01*
Y9207D01*
Y9209D01*
Y9210D01*
Y9212D01*
Y9213D01*
Y9215D01*
Y9217D01*
Y9218D01*
Y9220D01*
Y9221D01*
Y9223D01*
Y9224D01*
Y9226D01*
Y9228D01*
Y9229D01*
Y9231D01*
Y9232D01*
Y9234D01*
Y9236D01*
Y9237D01*
Y9239D01*
Y9240D01*
Y9242D01*
Y9244D01*
Y9245D01*
Y9247D01*
Y9248D01*
Y9250D01*
Y9252D01*
Y9253D01*
Y9255D01*
Y9256D01*
Y9258D01*
Y9260D01*
Y9261D01*
Y9263D01*
Y9264D01*
Y9266D01*
Y9268D01*
Y9269D01*
Y9271D01*
Y9272D01*
Y9274D01*
Y9276D01*
Y9277D01*
Y9279D01*
Y9280D01*
Y9282D01*
Y9283D01*
Y9285D01*
Y9287D01*
Y9288D01*
Y9290D01*
Y9291D01*
Y9293D01*
Y9295D01*
Y9296D01*
Y9298D01*
Y9299D01*
Y9301D01*
Y9303D01*
Y9304D01*
Y9306D01*
Y9307D01*
Y9309D01*
Y9311D01*
Y9312D01*
Y9314D01*
Y9315D01*
Y9317D01*
Y9319D01*
Y9320D01*
Y9322D01*
Y9323D01*
Y9325D01*
Y9327D01*
Y9328D01*
Y9330D01*
Y9331D01*
Y9333D01*
Y9334D01*
Y9336D01*
Y9338D01*
Y9339D01*
Y9341D01*
Y9342D01*
Y9344D01*
Y9346D01*
Y9347D01*
Y9349D01*
Y9350D01*
Y9352D01*
Y9354D01*
Y9355D01*
Y9357D01*
Y9358D01*
Y9360D01*
Y9362D01*
Y9363D01*
Y9365D01*
Y9366D01*
Y9368D01*
Y9370D01*
Y9371D01*
X5726D01*
Y9373D01*
X5764D01*
Y9371D01*
D02*
G37*
G36*
X9567Y8768D02*
Y8766D01*
X9582Y8692D01*
Y8690D01*
X9584Y8689D01*
X9585Y8687D01*
X9635Y8667D01*
X9639D01*
X9702Y8711D01*
X9704D01*
X9707Y8709D01*
X9761Y8658D01*
Y8657D01*
Y8655D01*
Y8654D01*
Y8652D01*
X9717Y8591D01*
Y8588D01*
Y8586D01*
Y8585D01*
X9740Y8533D01*
Y8532D01*
X9742Y8531D01*
X9745D01*
X9815Y8517D01*
X9818D01*
X9819Y8516D01*
Y8514D01*
Y8440D01*
Y8438D01*
X9818Y8437D01*
X9815D01*
X9746Y8422D01*
X9745D01*
X9743Y8421D01*
X9742Y8419D01*
X9720Y8364D01*
Y8362D01*
Y8361D01*
Y8359D01*
Y8358D01*
X9761Y8301D01*
Y8298D01*
Y8296D01*
X9707Y8243D01*
X9705Y8242D01*
X9704D01*
X9702Y8243D01*
X9645Y8282D01*
X9639D01*
X9616Y8268D01*
X9613D01*
X9611Y8270D01*
X9559Y8396D01*
Y8397D01*
X9560Y8402D01*
X9567Y8405D01*
X9569Y8406D01*
X9570Y8408D01*
X9572Y8409D01*
X9576Y8412D01*
X9582Y8418D01*
X9589Y8425D01*
X9597Y8434D01*
X9603Y8446D01*
X9607Y8459D01*
X9608Y8475D01*
Y8476D01*
Y8481D01*
X9607Y8487D01*
X9606Y8495D01*
X9603Y8504D01*
X9598Y8514D01*
X9592Y8525D01*
X9585Y8533D01*
X9584Y8535D01*
X9581Y8538D01*
X9576Y8541D01*
X9569Y8547D01*
X9560Y8551D01*
X9550Y8554D01*
X9540Y8557D01*
X9526Y8558D01*
X9521D01*
X9515Y8557D01*
X9506Y8555D01*
X9497Y8553D01*
X9487Y8548D01*
X9478Y8542D01*
X9468Y8533D01*
X9466Y8532D01*
X9465Y8529D01*
X9461Y8525D01*
X9456Y8517D01*
X9452Y8509D01*
X9449Y8498D01*
X9446Y8488D01*
X9444Y8475D01*
Y8473D01*
Y8468D01*
X9446Y8460D01*
X9449Y8450D01*
X9453Y8440D01*
X9461Y8428D01*
X9469Y8418D01*
X9483Y8408D01*
Y8406D01*
X9484Y8405D01*
X9485D01*
X9493Y8402D01*
X9494Y8400D01*
Y8396D01*
X9443Y8270D01*
X9441D01*
X9437Y8268D01*
X9412Y8282D01*
X9408D01*
X9351Y8243D01*
X9349Y8242D01*
X9348D01*
X9346Y8243D01*
X9292Y8296D01*
Y8298D01*
Y8299D01*
Y8301D01*
X9333Y8358D01*
Y8359D01*
Y8361D01*
Y8362D01*
Y8364D01*
X9310Y8419D01*
Y8421D01*
X9307Y8422D01*
X9238Y8437D01*
X9236D01*
X9235Y8438D01*
X9233Y8440D01*
Y8514D01*
Y8516D01*
X9235Y8517D01*
X9238D01*
X9308Y8531D01*
X9310D01*
X9314Y8533D01*
X9335Y8585D01*
Y8586D01*
Y8588D01*
Y8589D01*
Y8591D01*
X9292Y8652D01*
Y8654D01*
Y8655D01*
Y8657D01*
Y8658D01*
X9346Y8709D01*
X9348Y8711D01*
X9351D01*
X9412Y8667D01*
X9418D01*
X9468Y8687D01*
X9469D01*
X9471Y8689D01*
Y8692D01*
X9485Y8766D01*
Y8768D01*
X9487Y8769D01*
X9566D01*
X9567Y8768D01*
D02*
G37*
G36*
X9767Y8179D02*
X9773Y8176D01*
X9761Y8161D01*
X9759Y8163D01*
X9758Y8164D01*
X9755Y8166D01*
X9752Y8167D01*
X9749D01*
X9745Y8166D01*
X9739Y8160D01*
X9737Y8156D01*
X9736Y8150D01*
Y8103D01*
X9720D01*
Y8182D01*
X9736D01*
Y8173D01*
X9737Y8175D01*
X9740Y8178D01*
X9748Y8180D01*
X9756Y8182D01*
X9761D01*
X9767Y8179D01*
D02*
G37*
G36*
X9430D02*
X9434Y8175D01*
X9439Y8170D01*
X9441Y8163D01*
X9443Y8154D01*
Y8103D01*
X9427D01*
Y8150D01*
Y8151D01*
Y8153D01*
X9425Y8158D01*
X9420Y8164D01*
X9417Y8167D01*
X9408D01*
X9403Y8166D01*
X9398Y8160D01*
X9396Y8156D01*
X9395Y8150D01*
Y8103D01*
X9379D01*
Y8182D01*
X9395D01*
Y8173D01*
X9396Y8175D01*
X9400Y8178D01*
X9406Y8180D01*
X9417Y8182D01*
X9421D01*
X9430Y8179D01*
D02*
G37*
G36*
X9272Y8180D02*
X9279Y8179D01*
X9286Y8173D01*
X9288Y8172D01*
X9289Y8166D01*
X9291Y8157D01*
Y8142D01*
Y8141D01*
Y8139D01*
Y8131D01*
X9289Y8120D01*
X9286Y8112D01*
X9285Y8110D01*
X9279Y8107D01*
X9272Y8103D01*
X9264Y8101D01*
X9263D01*
X9258Y8103D01*
X9251Y8106D01*
X9242Y8110D01*
Y8049D01*
X9244Y8050D01*
X9248Y8053D01*
X9254Y8056D01*
X9264Y8057D01*
X9269D01*
X9277Y8054D01*
X9282Y8052D01*
X9286Y8046D01*
X9289Y8040D01*
X9291Y8031D01*
Y7980D01*
X9275D01*
Y8025D01*
Y8027D01*
Y8028D01*
X9273Y8034D01*
X9267Y8040D01*
X9264Y8043D01*
X9255D01*
X9251Y8041D01*
X9245Y8035D01*
X9244Y8031D01*
X9242Y8025D01*
Y7980D01*
X9229D01*
Y8182D01*
X9242D01*
Y8173D01*
X9244Y8175D01*
X9250Y8178D01*
X9255Y8180D01*
X9264Y8182D01*
X9266D01*
X9272Y8180D01*
D02*
G37*
G36*
X9531D02*
X9540Y8178D01*
X9550Y8170D01*
X9541Y8160D01*
X9538Y8161D01*
X9532Y8164D01*
X9525Y8166D01*
X9519Y8167D01*
X9516D01*
X9512Y8166D01*
X9507Y8164D01*
X9504Y8158D01*
Y8157D01*
X9506Y8156D01*
X9509Y8153D01*
X9516Y8151D01*
X9529Y8150D01*
X9534D01*
X9541Y8145D01*
X9550Y8138D01*
X9551Y8134D01*
X9553Y8126D01*
Y8125D01*
Y8122D01*
X9551Y8119D01*
X9548Y8115D01*
X9544Y8109D01*
X9538Y8106D01*
X9531Y8103D01*
X9519Y8101D01*
X9516D01*
X9507Y8103D01*
X9497Y8107D01*
X9485Y8116D01*
X9496Y8126D01*
X9497Y8125D01*
X9503Y8122D01*
X9512Y8117D01*
X9521Y8116D01*
X9524D01*
X9529Y8117D01*
X9534Y8120D01*
X9537Y8123D01*
Y8126D01*
Y8128D01*
X9535Y8129D01*
X9532Y8132D01*
X9526Y8135D01*
X9510D01*
X9509Y8137D01*
X9502Y8139D01*
X9494Y8147D01*
X9493Y8151D01*
X9491Y8158D01*
Y8160D01*
Y8163D01*
X9494Y8170D01*
X9499Y8175D01*
X9503Y8179D01*
X9510Y8180D01*
X9519Y8182D01*
X9522D01*
X9531Y8180D01*
D02*
G37*
G36*
X9816D02*
X9825Y8176D01*
X9834Y8169D01*
X9822Y8158D01*
X9821Y8160D01*
X9818Y8163D01*
X9814Y8166D01*
X9806Y8167D01*
X9803D01*
X9797Y8164D01*
X9793Y8161D01*
X9790Y8157D01*
X9789Y8151D01*
X9787Y8142D01*
Y8141D01*
Y8138D01*
X9790Y8131D01*
X9796Y8122D01*
X9800Y8119D01*
X9806Y8117D01*
X9808D01*
X9812Y8119D01*
X9816Y8122D01*
X9822Y8126D01*
X9834Y8116D01*
X9833Y8113D01*
X9827Y8109D01*
X9818Y8104D01*
X9806Y8101D01*
X9800D01*
X9795Y8104D01*
X9789Y8107D01*
X9783Y8112D01*
X9777Y8119D01*
X9773Y8129D01*
X9771Y8142D01*
Y8144D01*
Y8148D01*
X9773Y8156D01*
X9775Y8163D01*
X9780Y8169D01*
X9786Y8176D01*
X9795Y8180D01*
X9806Y8182D01*
X9809D01*
X9816Y8180D01*
D02*
G37*
G36*
X9702Y8103D02*
X9686D01*
Y8110D01*
X9685Y8109D01*
X9680Y8106D01*
X9674Y8103D01*
X9667Y8101D01*
X9663D01*
X9654Y8104D01*
X9648Y8107D01*
X9644Y8113D01*
X9641Y8119D01*
X9639Y8128D01*
Y8182D01*
X9655D01*
Y8135D01*
Y8132D01*
X9657Y8126D01*
X9663Y8120D01*
X9666Y8119D01*
X9671Y8117D01*
X9674D01*
X9679Y8120D01*
X9683Y8125D01*
X9686Y8129D01*
Y8135D01*
Y8182D01*
X9702D01*
Y8103D01*
D02*
G37*
G36*
X9881Y8180D02*
X9888Y8178D01*
X9894Y8175D01*
X9899Y8169D01*
X9903Y8160D01*
X9904Y8150D01*
Y8135D01*
X9855D01*
Y8134D01*
Y8132D01*
X9858Y8126D01*
X9863Y8119D01*
X9868Y8117D01*
X9874Y8116D01*
X9875D01*
X9879Y8117D01*
X9885Y8120D01*
X9890Y8125D01*
X9901Y8115D01*
X9900Y8113D01*
X9894Y8109D01*
X9885Y8103D01*
X9874Y8101D01*
X9868D01*
X9862Y8104D01*
X9856Y8107D01*
X9850Y8112D01*
X9844Y8119D01*
X9840Y8129D01*
X9838Y8142D01*
Y8144D01*
Y8148D01*
X9840Y8156D01*
X9843Y8163D01*
X9846Y8169D01*
X9852Y8176D01*
X9860Y8180D01*
X9871Y8182D01*
X9877D01*
X9881Y8180D01*
D02*
G37*
G36*
X9603D02*
X9610Y8179D01*
X9617Y8173D01*
X9619Y8172D01*
X9622Y8166D01*
X9625Y8157D01*
X9626Y8142D01*
Y8141D01*
Y8139D01*
X9625Y8131D01*
X9623Y8120D01*
X9617Y8112D01*
X9616Y8110D01*
X9611Y8107D01*
X9604Y8103D01*
X9594Y8101D01*
X9591D01*
X9585Y8103D01*
X9578Y8106D01*
X9569Y8112D01*
X9567Y8113D01*
X9566Y8119D01*
X9563Y8129D01*
X9562Y8142D01*
Y8144D01*
Y8145D01*
X9563Y8154D01*
X9565Y8164D01*
X9569Y8173D01*
X9570Y8175D01*
X9575Y8178D01*
X9584Y8180D01*
X9594Y8182D01*
X9597D01*
X9603Y8180D01*
D02*
G37*
G36*
X9343D02*
X9351Y8178D01*
X9357Y8175D01*
X9361Y8169D01*
X9365Y8160D01*
X9367Y8150D01*
Y8135D01*
X9317D01*
Y8134D01*
Y8132D01*
X9320Y8126D01*
X9324Y8119D01*
X9329Y8117D01*
X9335Y8116D01*
X9336D01*
X9342Y8117D01*
X9346Y8120D01*
X9352Y8125D01*
X9365Y8115D01*
X9362Y8113D01*
X9357Y8109D01*
X9348Y8103D01*
X9336Y8101D01*
X9330D01*
X9324Y8104D01*
X9318Y8107D01*
X9313Y8112D01*
X9307Y8119D01*
X9302Y8129D01*
X9301Y8142D01*
Y8144D01*
Y8148D01*
X9302Y8156D01*
X9305Y8163D01*
X9308Y8169D01*
X9314Y8176D01*
X9323Y8180D01*
X9333Y8182D01*
X9339D01*
X9343Y8180D01*
D02*
G37*
G36*
X9192D02*
X9200Y8179D01*
X9206Y8173D01*
X9207Y8172D01*
X9210Y8166D01*
X9213Y8157D01*
X9214Y8142D01*
Y8141D01*
Y8139D01*
X9213Y8131D01*
X9212Y8120D01*
X9206Y8112D01*
X9204Y8110D01*
X9200Y8107D01*
X9192Y8103D01*
X9182Y8101D01*
X9179D01*
X9173Y8103D01*
X9166Y8106D01*
X9157Y8112D01*
X9156Y8113D01*
X9154Y8120D01*
X9153Y8129D01*
X9151Y8142D01*
Y8144D01*
Y8145D01*
X9153Y8154D01*
X9154Y8163D01*
X9157Y8173D01*
X9159Y8175D01*
X9163Y8178D01*
X9172Y8180D01*
X9182Y8182D01*
X9185D01*
X9192Y8180D01*
D02*
G37*
G36*
X9748Y8054D02*
X9754Y8052D01*
X9740Y8038D01*
Y8040D01*
X9737Y8041D01*
X9734Y8043D01*
X9727D01*
X9723Y8041D01*
X9718Y8035D01*
X9715Y8031D01*
Y8025D01*
Y7980D01*
X9699D01*
Y8057D01*
X9715D01*
Y8049D01*
X9717Y8050D01*
X9721Y8053D01*
X9727Y8056D01*
X9737Y8057D01*
X9742D01*
X9748Y8054D01*
D02*
G37*
G36*
X9499Y7980D02*
X9483D01*
Y7986D01*
X9481Y7984D01*
X9477Y7981D01*
X9471Y7978D01*
X9462Y7977D01*
X9461D01*
X9455Y7978D01*
X9447Y7981D01*
X9441Y7989D01*
X9440Y7990D01*
X9439Y7994D01*
X9437Y7997D01*
Y8003D01*
X9436Y8009D01*
Y8018D01*
Y8019D01*
Y8022D01*
X9437Y8031D01*
X9439Y8041D01*
X9440Y8046D01*
X9441Y8049D01*
X9443Y8050D01*
X9446Y8053D01*
X9453Y8056D01*
X9462Y8057D01*
X9463D01*
X9469Y8056D01*
X9475Y8054D01*
X9483Y8049D01*
Y8090D01*
X9499D01*
Y7980D01*
D02*
G37*
G36*
X9430Y8054D02*
X9436Y8052D01*
X9424Y8038D01*
X9422Y8040D01*
X9421Y8041D01*
X9417Y8043D01*
X9411D01*
X9406Y8041D01*
X9400Y8035D01*
X9399Y8031D01*
Y8025D01*
Y7980D01*
X9383D01*
Y8057D01*
X9399D01*
Y8049D01*
X9400Y8050D01*
X9403Y8053D01*
X9409Y8056D01*
X9418Y8057D01*
X9424D01*
X9430Y8054D01*
D02*
G37*
G36*
X9594Y7980D02*
X9579D01*
X9562Y8034D01*
X9546Y7980D01*
X9532D01*
X9507Y8057D01*
X9524D01*
X9538Y8002D01*
X9557Y8057D01*
X9569D01*
X9587Y8002D01*
X9601Y8057D01*
X9619D01*
X9594Y7980D01*
D02*
G37*
G36*
X9667Y8054D02*
X9671Y8052D01*
X9677Y8047D01*
X9680Y8041D01*
X9682Y8033D01*
Y7980D01*
X9667D01*
Y7986D01*
X9666Y7984D01*
X9663Y7981D01*
X9655Y7978D01*
X9647Y7977D01*
X9642D01*
X9633Y7980D01*
X9628Y7983D01*
X9623Y7987D01*
X9620Y7993D01*
X9619Y8002D01*
Y8003D01*
Y8006D01*
X9622Y8013D01*
X9625Y8018D01*
X9630Y8022D01*
X9636Y8024D01*
X9645Y8025D01*
X9667D01*
Y8033D01*
Y8034D01*
X9666Y8038D01*
X9660Y8041D01*
X9657Y8043D01*
X9645D01*
X9639Y8041D01*
X9636Y8038D01*
X9625Y8047D01*
X9626Y8049D01*
X9630Y8053D01*
X9638Y8056D01*
X9651Y8057D01*
X9655D01*
X9667Y8054D01*
D02*
G37*
G36*
X9342Y8056D02*
X9349Y8054D01*
X9355Y8052D01*
X9359Y8047D01*
X9364Y8041D01*
X9365Y8033D01*
Y7980D01*
X9349D01*
Y7986D01*
X9348Y7984D01*
X9345Y7981D01*
X9339Y7978D01*
X9330Y7977D01*
X9326D01*
X9316Y7980D01*
X9310Y7983D01*
X9305Y7987D01*
X9302Y7993D01*
X9301Y8002D01*
Y8003D01*
Y8006D01*
X9304Y8013D01*
X9307Y8018D01*
X9313Y8022D01*
X9318Y8024D01*
X9327Y8025D01*
X9349D01*
Y8033D01*
Y8034D01*
X9348Y8038D01*
X9342Y8041D01*
X9339Y8043D01*
X9327D01*
X9321Y8041D01*
X9317Y8038D01*
X9305Y8047D01*
X9307Y8049D01*
X9313Y8053D01*
X9320Y8056D01*
X9332Y8057D01*
X9337D01*
X9342Y8056D01*
D02*
G37*
G36*
X9796D02*
X9803Y8053D01*
X9809Y8050D01*
X9814Y8044D01*
X9818Y8035D01*
X9819Y8025D01*
Y8011D01*
X9770D01*
Y8009D01*
Y8008D01*
X9773Y8002D01*
X9777Y7994D01*
X9781Y7993D01*
X9787Y7991D01*
X9789D01*
X9795Y7993D01*
X9799Y7996D01*
X9805Y8000D01*
X9816Y7990D01*
X9815Y7989D01*
X9809Y7984D01*
X9800Y7978D01*
X9789Y7977D01*
X9783D01*
X9777Y7980D01*
X9771Y7983D01*
X9765Y7987D01*
X9759Y7994D01*
X9755Y8005D01*
X9754Y8018D01*
Y8019D01*
Y8024D01*
X9755Y8031D01*
X9758Y8038D01*
X9761Y8044D01*
X9767Y8052D01*
X9775Y8056D01*
X9786Y8057D01*
X9792D01*
X9796Y8056D01*
D02*
G37*
%LPC*%
G36*
X4901Y9224D02*
X4878D01*
Y9223D01*
X4870D01*
Y9221D01*
X4867D01*
Y9220D01*
X4865D01*
Y9218D01*
X4864D01*
Y9217D01*
X4861D01*
Y9215D01*
X4859D01*
Y9213D01*
X4857D01*
Y9212D01*
X4854D01*
Y9210D01*
Y9209D01*
Y9207D01*
X4853D01*
Y9205D01*
X4851D01*
Y9204D01*
Y9202D01*
X4849D01*
Y9201D01*
Y9199D01*
X4848D01*
Y9197D01*
X4846D01*
Y9196D01*
X4848D01*
Y9194D01*
Y9193D01*
X4845D01*
Y9191D01*
Y9189D01*
Y9188D01*
X4843D01*
Y9186D01*
Y9185D01*
Y9183D01*
Y9181D01*
Y9180D01*
X4842D01*
Y9178D01*
Y9177D01*
Y9175D01*
Y9173D01*
Y9172D01*
Y9170D01*
Y9169D01*
X4840D01*
Y9167D01*
Y9166D01*
Y9164D01*
Y9162D01*
Y9161D01*
Y9159D01*
Y9158D01*
Y9156D01*
Y9154D01*
Y9153D01*
X4838D01*
Y9151D01*
Y9150D01*
Y9148D01*
Y9146D01*
Y9145D01*
Y9143D01*
Y9142D01*
Y9140D01*
Y9138D01*
Y9137D01*
Y9135D01*
Y9134D01*
Y9132D01*
Y9130D01*
Y9129D01*
Y9127D01*
Y9126D01*
Y9124D01*
Y9122D01*
Y9121D01*
Y9119D01*
Y9118D01*
Y9116D01*
Y9115D01*
Y9113D01*
Y9111D01*
Y9110D01*
Y9108D01*
Y9107D01*
Y9105D01*
Y9103D01*
Y9102D01*
Y9100D01*
Y9099D01*
Y9097D01*
Y9095D01*
Y9094D01*
Y9092D01*
Y9091D01*
Y9089D01*
Y9087D01*
Y9086D01*
X4840D01*
Y9084D01*
Y9083D01*
Y9081D01*
Y9079D01*
Y9078D01*
Y9076D01*
Y9075D01*
Y9073D01*
Y9071D01*
Y9070D01*
Y9068D01*
X4842D01*
Y9067D01*
Y9065D01*
Y9064D01*
Y9062D01*
Y9060D01*
Y9059D01*
X4843D01*
Y9057D01*
Y9056D01*
Y9054D01*
Y9052D01*
Y9051D01*
Y9049D01*
X4845D01*
Y9048D01*
Y9046D01*
Y9044D01*
X4848D01*
Y9043D01*
Y9041D01*
Y9040D01*
X4849D01*
Y9038D01*
Y9036D01*
X4851D01*
Y9035D01*
Y9033D01*
Y9032D01*
X4853D01*
Y9030D01*
Y9028D01*
X4856D01*
Y9027D01*
X4857D01*
Y9025D01*
X4859D01*
Y9024D01*
X4861D01*
Y9022D01*
Y9020D01*
X4862D01*
Y9019D01*
X4867D01*
Y9017D01*
X4869D01*
Y9016D01*
X4873D01*
Y9014D01*
X4885D01*
Y9013D01*
X4891D01*
Y9014D01*
X4904D01*
Y9016D01*
X4907D01*
Y9017D01*
X4912D01*
Y9019D01*
X4915D01*
Y9020D01*
X4916D01*
Y9022D01*
Y9024D01*
X4918D01*
Y9025D01*
X4921D01*
Y9027D01*
X4923D01*
Y9028D01*
X4924D01*
Y9030D01*
Y9032D01*
X4926D01*
Y9033D01*
Y9035D01*
Y9036D01*
X4929D01*
Y9038D01*
X4928D01*
Y9040D01*
X4931D01*
Y9041D01*
Y9043D01*
Y9044D01*
Y9046D01*
X4932D01*
Y9048D01*
Y9049D01*
Y9051D01*
X4934D01*
Y9052D01*
Y9054D01*
Y9056D01*
Y9057D01*
Y9059D01*
X4936D01*
Y9060D01*
Y9062D01*
Y9064D01*
Y9065D01*
Y9067D01*
Y9068D01*
Y9070D01*
X4937D01*
Y9071D01*
Y9073D01*
Y9075D01*
Y9076D01*
Y9078D01*
Y9079D01*
Y9081D01*
Y9083D01*
Y9084D01*
Y9086D01*
Y9087D01*
Y9089D01*
X4940D01*
Y9091D01*
Y9092D01*
Y9094D01*
Y9095D01*
Y9097D01*
Y9099D01*
Y9100D01*
Y9102D01*
Y9103D01*
Y9105D01*
Y9107D01*
Y9108D01*
Y9110D01*
Y9111D01*
Y9113D01*
Y9115D01*
Y9116D01*
Y9118D01*
Y9119D01*
Y9121D01*
Y9122D01*
Y9124D01*
Y9126D01*
Y9127D01*
Y9129D01*
Y9130D01*
Y9132D01*
Y9134D01*
Y9135D01*
Y9137D01*
Y9138D01*
Y9140D01*
Y9142D01*
Y9143D01*
Y9145D01*
Y9146D01*
Y9148D01*
X4937D01*
Y9150D01*
Y9151D01*
Y9153D01*
Y9154D01*
Y9156D01*
Y9158D01*
Y9159D01*
Y9161D01*
Y9162D01*
Y9164D01*
Y9166D01*
Y9167D01*
X4936D01*
Y9169D01*
Y9170D01*
Y9172D01*
Y9173D01*
Y9175D01*
Y9177D01*
Y9178D01*
X4934D01*
Y9180D01*
Y9181D01*
Y9183D01*
Y9185D01*
X4932D01*
Y9186D01*
Y9188D01*
Y9189D01*
Y9191D01*
Y9193D01*
X4931D01*
Y9194D01*
Y9196D01*
X4929D01*
Y9197D01*
X4928D01*
Y9199D01*
X4929D01*
Y9201D01*
Y9202D01*
X4926D01*
Y9204D01*
X4924D01*
Y9205D01*
Y9207D01*
Y9209D01*
X4923D01*
Y9210D01*
X4921D01*
Y9212D01*
Y9213D01*
X4918D01*
Y9215D01*
X4915D01*
Y9217D01*
X4913D01*
Y9218D01*
Y9220D01*
X4908D01*
Y9221D01*
X4907D01*
Y9223D01*
X4901D01*
Y9224D01*
D02*
G37*
G36*
X9258Y8167D02*
X9255D01*
X9251Y8164D01*
X9248Y8161D01*
X9245Y8157D01*
X9244Y8151D01*
X9242Y8142D01*
Y8141D01*
Y8138D01*
X9244Y8131D01*
X9250Y8122D01*
X9253Y8119D01*
X9258Y8117D01*
X9261D01*
X9267Y8120D01*
X9270Y8123D01*
X9272Y8128D01*
X9275Y8134D01*
Y8142D01*
Y8144D01*
Y8147D01*
X9273Y8156D01*
X9267Y8163D01*
X9264Y8166D01*
X9258Y8167D01*
D02*
G37*
G36*
X9875D02*
X9868D01*
X9863Y8166D01*
X9858Y8160D01*
X9856Y8156D01*
X9855Y8150D01*
X9888D01*
Y8151D01*
Y8153D01*
X9885Y8158D01*
X9879Y8164D01*
X9875Y8167D01*
D02*
G37*
G36*
X9594D02*
X9592D01*
X9589Y8166D01*
X9585Y8164D01*
X9582Y8160D01*
X9581Y8157D01*
X9579Y8151D01*
X9578Y8142D01*
Y8139D01*
Y8135D01*
X9579Y8128D01*
X9582Y8123D01*
Y8122D01*
X9584Y8120D01*
X9588Y8119D01*
X9594Y8117D01*
X9595D01*
X9598Y8119D01*
X9603Y8120D01*
X9606Y8123D01*
X9607Y8125D01*
X9608Y8128D01*
X9610Y8134D01*
Y8142D01*
Y8145D01*
Y8150D01*
X9608Y8156D01*
X9606Y8160D01*
Y8161D01*
X9603Y8164D01*
X9600Y8166D01*
X9594Y8167D01*
D02*
G37*
G36*
X9337D02*
X9330D01*
X9326Y8166D01*
X9320Y8160D01*
X9318Y8156D01*
X9317Y8150D01*
X9351D01*
Y8151D01*
Y8153D01*
X9348Y8158D01*
X9342Y8164D01*
X9337Y8167D01*
D02*
G37*
G36*
X9182D02*
X9181D01*
X9178Y8166D01*
X9173Y8164D01*
X9171Y8160D01*
X9169Y8158D01*
X9168Y8156D01*
X9166Y8150D01*
X9165Y8142D01*
Y8141D01*
X9166Y8135D01*
X9168Y8129D01*
X9171Y8123D01*
Y8122D01*
X9172Y8120D01*
X9176Y8119D01*
X9182Y8117D01*
X9184D01*
X9188Y8119D01*
X9192Y8120D01*
X9195Y8123D01*
Y8125D01*
X9197Y8128D01*
X9198Y8134D01*
Y8142D01*
Y8145D01*
Y8150D01*
X9197Y8156D01*
X9195Y8160D01*
X9194Y8161D01*
X9192Y8164D01*
X9188Y8166D01*
X9182Y8167D01*
D02*
G37*
G36*
X9468Y8043D02*
X9465D01*
X9461Y8040D01*
X9458Y8037D01*
X9455Y8033D01*
X9453Y8027D01*
X9452Y8018D01*
Y8016D01*
Y8013D01*
X9453Y8006D01*
X9459Y7997D01*
X9462Y7994D01*
X9468Y7993D01*
X9471D01*
X9475Y7996D01*
X9478Y7999D01*
X9480Y8003D01*
X9483Y8009D01*
Y8018D01*
Y8019D01*
Y8022D01*
X9481Y8031D01*
X9477Y8038D01*
X9472Y8041D01*
X9468Y8043D01*
D02*
G37*
G36*
X9667Y8011D02*
X9647D01*
X9642Y8009D01*
X9636Y8008D01*
X9635Y8002D01*
Y8000D01*
X9636Y7997D01*
X9641Y7993D01*
X9648Y7991D01*
X9651D01*
X9658Y7993D01*
X9664Y7997D01*
X9666Y8002D01*
X9667Y8006D01*
Y8011D01*
D02*
G37*
G36*
X9349D02*
X9329D01*
X9324Y8009D01*
X9318Y8008D01*
X9317Y8002D01*
Y8000D01*
X9318Y7997D01*
X9323Y7993D01*
X9332Y7991D01*
X9335D01*
X9340Y7993D01*
X9346Y7997D01*
X9349Y8002D01*
Y8006D01*
Y8011D01*
D02*
G37*
G36*
X9790Y8043D02*
X9783D01*
X9778Y8041D01*
X9773Y8035D01*
X9771Y8031D01*
X9770Y8025D01*
X9803D01*
Y8027D01*
Y8028D01*
X9800Y8034D01*
X9795Y8040D01*
X9790Y8043D01*
D02*
G37*
%LPD*%
D10*
X8760Y7500D02*
G03*
X8760Y7500I-12J0D01*
G01*
X9100Y7775D02*
Y7895D01*
X9140Y7855D01*
X9180Y7895D01*
Y7775D01*
X9220D02*
Y7855D01*
X9260Y7895D01*
X9300Y7855D01*
Y7775D01*
Y7835D01*
X9220D01*
X9340Y7895D02*
X9420Y7775D01*
Y7895D02*
X9340Y7775D01*
X9460D02*
X9500D01*
X9480D01*
Y7895D01*
X9460Y7875D01*
X9620Y7775D02*
Y7895D01*
X9560Y7835D01*
X9640D01*
X9680Y7875D02*
X9700Y7895D01*
X9740D01*
X9760Y7875D01*
Y7855D01*
X9740Y7835D01*
X9760Y7815D01*
Y7795D01*
X9740Y7775D01*
X9700D01*
X9680Y7795D01*
Y7815D01*
X9700Y7835D01*
X9680Y7855D01*
Y7875D01*
X9700Y7835D02*
X9740D01*
X9880Y7895D02*
X9840Y7875D01*
X9800Y7835D01*
Y7795D01*
X9820Y7775D01*
X9860D01*
X9880Y7795D01*
Y7815D01*
X9860Y7835D01*
X9800D01*
X10000Y7895D02*
X9960Y7875D01*
X9920Y7835D01*
Y7795D01*
X9940Y7775D01*
X9980D01*
X10000Y7795D01*
Y7815D01*
X9980Y7835D01*
X9920D01*
D11*
X7878Y6520D02*
X7957D01*
X7878D02*
Y6620D01*
X8097Y6520D02*
X8178D01*
Y6620D01*
X5485Y6140D02*
Y6775D01*
X5168Y6140D02*
Y6775D01*
X5560Y6773D02*
X5602D01*
X5629Y6746D01*
Y6246D02*
Y6746D01*
X5044Y6775D02*
X5080D01*
X5011Y6742D02*
X5044Y6775D01*
X5011Y6568D02*
Y6742D01*
Y6246D02*
Y6575D01*
X4844Y6928D02*
X5796D01*
X4844Y7093D02*
X5206D01*
X5011Y6163D02*
Y6246D01*
Y6163D02*
X5053Y6140D01*
X5587D02*
X5629Y6161D01*
Y6246D01*
X5075Y6775D02*
X5565D01*
X5075D02*
Y6928D01*
X5053Y6140D02*
X5587D01*
X5565Y6775D02*
Y6928D01*
X4844D02*
Y7093D01*
X5796Y6928D02*
Y7093D01*
X5434D02*
X5796D01*
X7105Y6146D02*
Y6781D01*
X6788Y6146D02*
Y6781D01*
X7180Y6778D02*
X7222D01*
X7249Y6750D01*
Y6251D02*
Y6750D01*
X6664Y6780D02*
X6700D01*
X6631Y6747D02*
X6664Y6780D01*
X6631Y6573D02*
Y6747D01*
Y6251D02*
Y6580D01*
X6464Y6932D02*
X7416D01*
X6464Y7097D02*
X6826D01*
X6631Y6168D02*
Y6251D01*
Y6168D02*
X6674Y6144D01*
X7207D02*
X7249Y6166D01*
Y6251D01*
X6695Y6781D02*
X7185D01*
X6695D02*
Y6932D01*
X6674Y6144D02*
X7207D01*
X7185Y6781D02*
Y6932D01*
X6464D02*
Y7097D01*
X7416Y6932D02*
Y7097D01*
X7054D02*
X7416D01*
D12*
X8234Y6166D02*
Y6379D01*
X7866Y6166D02*
Y6379D01*
Y6166D02*
X8234D01*
X7866Y6379D02*
X8234D01*
X7825Y5315D02*
Y5569D01*
X9349Y5315D02*
Y5569D01*
X7825Y5315D02*
X9349D01*
X7825D02*
Y5569D01*
X9349D01*
X7825D02*
Y6064D01*
X9349Y5582D02*
Y6064D01*
X7825D02*
X9349D01*
X9284Y6604D02*
X9766D01*
X9284Y6858D02*
X9766D01*
X9779Y6604D02*
Y6858D01*
X9284Y6604D02*
Y6858D01*
X8725Y9131D02*
X9043D01*
X7011D02*
X8789D01*
X7011Y8623D02*
X9043D01*
X7011D02*
Y9131D01*
X9043Y8623D02*
Y9131D01*
X9081Y9055D02*
X9132Y9106D01*
X9081Y9055D02*
X9132Y9004D01*
Y9106D01*
X8639Y6808D02*
Y7022D01*
X8271Y6808D02*
Y7022D01*
Y6808D02*
X8639D01*
X8271Y7022D02*
X8639D01*
X7856Y6808D02*
Y7022D01*
X8224Y6808D02*
Y7022D01*
X7856D02*
X8224D01*
X7856Y6808D02*
X8224D01*
X8288Y6754D02*
X8502D01*
X8288Y6386D02*
X8502D01*
Y6754D01*
X8288Y6386D02*
Y6754D01*
X9169Y6878D02*
Y7092D01*
X8801Y6878D02*
Y7092D01*
Y6878D02*
X9169D01*
X8801Y7092D02*
X9169D01*
X9284Y6858D02*
X9766D01*
X9284Y7112D02*
X9766D01*
X9779Y6858D02*
Y7112D01*
X9284Y6858D02*
Y7112D01*
X8801Y6838D02*
X9169D01*
X8801Y6624D02*
X9169D01*
X8801D02*
Y6838D01*
X9169Y6624D02*
Y6838D01*
X7130Y8560D02*
X7230D01*
X7130D02*
Y8590D01*
X7390Y8560D02*
Y8590D01*
X7650Y8560D02*
Y8590D01*
X7900Y8560D02*
Y8590D01*
X8160Y8560D02*
Y8590D01*
X8410Y8560D02*
Y8590D01*
X8660Y8560D02*
Y8590D01*
X8920Y8560D02*
Y8590D01*
X7230Y8560D02*
X8920D01*
X7230Y8290D02*
Y8560D01*
X4150Y8527D02*
Y8451D01*
X4176Y8425D01*
X4201Y8451D01*
X4227Y8425D01*
X4252Y8451D01*
Y8527D01*
X4303D02*
Y8451D01*
X4328Y8425D01*
X4354Y8451D01*
X4379Y8425D01*
X4404Y8451D01*
Y8527D01*
X4455D02*
Y8451D01*
X4480Y8425D01*
X4506Y8451D01*
X4531Y8425D01*
X4557Y8451D01*
Y8527D01*
X4607Y8425D02*
Y8451D01*
X4633D01*
Y8425D01*
X4607D01*
X4734Y8527D02*
Y8451D01*
X4760Y8425D01*
X4836D01*
Y8527D01*
X4887Y8425D02*
Y8527D01*
X4963D01*
X4988Y8502D01*
Y8425D01*
X5039Y8552D02*
X5065Y8578D01*
X5115D01*
X5141Y8552D01*
Y8451D01*
X5115Y8425D01*
X5065D01*
X5039Y8451D01*
Y8552D01*
X5191Y8527D02*
Y8425D01*
Y8476D01*
X5217Y8502D01*
X5242Y8527D01*
X5268D01*
X5344Y8425D02*
X5395D01*
X5369D01*
Y8527D01*
X5344D01*
X5572D02*
X5496D01*
X5471Y8502D01*
Y8451D01*
X5496Y8425D01*
X5572D01*
X5623D02*
Y8578D01*
Y8476D02*
X5699Y8527D01*
X5623Y8476D02*
X5699Y8425D01*
X5775D02*
Y8451D01*
X5801D01*
Y8425D01*
X5775D01*
X6004Y8527D02*
X5928D01*
X5902Y8502D01*
Y8451D01*
X5928Y8425D01*
X6004D01*
X6156Y8527D02*
X6080D01*
X6055Y8502D01*
Y8451D01*
X6080Y8425D01*
X6156D01*
X4794Y8790D02*
X4700D01*
Y8720D01*
X4747D01*
X4700D01*
Y8650D01*
X4840D02*
Y8790D01*
X4910D01*
X4934Y8767D01*
Y8720D01*
X4910Y8697D01*
X4840D01*
X4887D02*
X4934Y8650D01*
X4980Y8767D02*
X5004Y8790D01*
X5050D01*
X5074Y8767D01*
Y8674D01*
X5050Y8650D01*
X5004D01*
X4980Y8674D01*
Y8767D01*
X5120D02*
X5144Y8790D01*
X5190D01*
X5214Y8767D01*
Y8674D01*
X5190Y8650D01*
X5144D01*
X5120Y8674D01*
Y8767D01*
X5260D02*
X5284Y8790D01*
X5330D01*
X5354Y8767D01*
Y8674D01*
X5330Y8650D01*
X5284D01*
X5260Y8674D01*
Y8767D01*
X5400D02*
X5424Y8790D01*
X5470D01*
X5493Y8767D01*
Y8674D01*
X5470Y8650D01*
X5424D01*
X5400Y8674D01*
Y8767D01*
X5540Y8650D02*
X5587D01*
X5563D01*
Y8790D01*
X5540Y8767D01*
X5727Y8650D02*
Y8790D01*
X5657Y8720D01*
X5750D01*
X7640Y5300D02*
X10100D01*
X7640D02*
Y7100D01*
X4000D02*
X7640D01*
X4000D02*
Y9500D01*
X10100D01*
Y5300D02*
Y9500D01*
D13*
X9903Y6756D02*
X9853D01*
X9836Y6739D01*
Y6706D01*
X9853Y6689D01*
X9903D01*
X9936D02*
X9970D01*
X9953D01*
Y6789D01*
X9936D01*
X10020Y6756D02*
Y6689D01*
Y6722D01*
X10036Y6739D01*
X10053Y6756D01*
X10070D01*
X9829Y6944D02*
X9879D01*
X9896Y6961D01*
X9879Y6977D01*
X9846D01*
X9829Y6994D01*
X9846Y7011D01*
X9896D01*
X9979Y6944D02*
X9946D01*
X9929Y6961D01*
Y6994D01*
X9946Y7011D01*
X9979D01*
X9996Y6994D01*
Y6977D01*
X9929D01*
X10046Y7027D02*
Y7011D01*
X10029D01*
X10062D01*
X10046D01*
Y6961D01*
X10062Y6944D01*
X5051Y7864D02*
X5118D01*
X5085D01*
Y7764D01*
X5151Y7864D02*
X5218Y7764D01*
Y7864D02*
X5151Y7764D01*
X6676Y7771D02*
Y7871D01*
X6726D01*
X6743Y7855D01*
Y7821D01*
X6726Y7805D01*
X6676D01*
X6710D02*
X6743Y7771D01*
X6776Y7871D02*
X6843Y7771D01*
Y7871D02*
X6776Y7771D01*
X8871Y9179D02*
Y9246D01*
Y9212D01*
X8971D01*
Y9279D02*
X8871D01*
Y9329D01*
X8888Y9346D01*
X8921D01*
X8938Y9329D01*
Y9279D01*
Y9312D02*
X8971Y9346D01*
Y9379D02*
Y9412D01*
Y9396D01*
X8871D01*
X8888Y9379D01*
X8611Y9179D02*
Y9246D01*
Y9212D01*
X8711D01*
Y9279D02*
X8611D01*
Y9329D01*
X8628Y9346D01*
X8661D01*
X8678Y9329D01*
Y9279D01*
Y9312D02*
X8711Y9346D01*
Y9446D02*
Y9379D01*
X8644Y9446D01*
X8628D01*
X8611Y9429D01*
Y9396D01*
X8628Y9379D01*
X8361Y9179D02*
Y9246D01*
Y9212D01*
X8461D01*
Y9279D02*
X8361D01*
Y9329D01*
X8378Y9346D01*
X8411D01*
X8428Y9329D01*
Y9279D01*
Y9312D02*
X8461Y9346D01*
X8378Y9379D02*
X8361Y9396D01*
Y9429D01*
X8378Y9446D01*
X8394D01*
X8411Y9429D01*
Y9412D01*
Y9429D01*
X8428Y9446D01*
X8444D01*
X8461Y9429D01*
Y9396D01*
X8444Y9379D01*
X8101Y9179D02*
Y9246D01*
Y9212D01*
X8201D01*
Y9279D02*
X8101D01*
Y9329D01*
X8118Y9346D01*
X8151D01*
X8168Y9329D01*
Y9279D01*
Y9312D02*
X8201Y9346D01*
Y9429D02*
X8101D01*
X8151Y9379D01*
Y9446D01*
X7851Y9179D02*
Y9246D01*
Y9212D01*
X7951D01*
Y9279D02*
X7851D01*
Y9329D01*
X7868Y9346D01*
X7901D01*
X7918Y9329D01*
Y9279D01*
Y9312D02*
X7951Y9346D01*
X7851Y9446D02*
Y9379D01*
X7901D01*
X7884Y9412D01*
Y9429D01*
X7901Y9446D01*
X7934D01*
X7951Y9429D01*
Y9396D01*
X7934Y9379D01*
X7591Y9179D02*
Y9246D01*
Y9212D01*
X7691D01*
Y9279D02*
X7591D01*
Y9329D01*
X7608Y9346D01*
X7641D01*
X7658Y9329D01*
Y9279D01*
Y9312D02*
X7691Y9346D01*
X7591Y9446D02*
X7608Y9412D01*
X7641Y9379D01*
X7674D01*
X7691Y9396D01*
Y9429D01*
X7674Y9446D01*
X7658D01*
X7641Y9429D01*
Y9379D01*
X7338Y9178D02*
Y9245D01*
Y9211D01*
X7438D01*
Y9278D02*
X7338D01*
Y9328D01*
X7355Y9345D01*
X7388D01*
X7405Y9328D01*
Y9278D01*
Y9311D02*
X7438Y9345D01*
X7338Y9378D02*
Y9445D01*
X7355D01*
X7422Y9378D01*
X7438D01*
X7098Y8306D02*
X7081Y8289D01*
Y8256D01*
X7098Y8239D01*
X7164D01*
X7181Y8256D01*
Y8289D01*
X7164Y8306D01*
X7131D01*
Y8272D01*
X7181Y8339D02*
X7081D01*
X7181Y8406D01*
X7081D01*
Y8439D02*
X7181D01*
Y8489D01*
X7164Y8506D01*
X7098D01*
X7081Y8489D01*
Y8439D01*
X7091Y9179D02*
Y9246D01*
Y9212D01*
X7191D01*
Y9279D02*
X7091D01*
Y9329D01*
X7108Y9346D01*
X7141D01*
X7158Y9329D01*
Y9279D01*
Y9312D02*
X7191Y9346D01*
X7108Y9379D02*
X7091Y9396D01*
Y9429D01*
X7108Y9446D01*
X7124D01*
X7141Y9429D01*
X7158Y9446D01*
X7174D01*
X7191Y9429D01*
Y9396D01*
X7174Y9379D01*
X7158D01*
X7141Y9396D01*
X7124Y9379D01*
X7108D01*
X7141Y9396D02*
Y9429D01*
D14*
X7703Y6524D02*
X7786D01*
X7802Y6541D01*
Y6574D01*
X7786Y6591D01*
X7703D01*
X7802Y6691D02*
Y6624D01*
X7736Y6691D01*
X7719D01*
X7703Y6674D01*
Y6641D01*
X7719Y6624D01*
X7724Y6263D02*
X7708Y6247D01*
Y6213D01*
X7724Y6197D01*
X7791D01*
X7807Y6213D01*
Y6247D01*
X7791Y6263D01*
X7724Y6297D02*
X7708Y6313D01*
Y6347D01*
X7724Y6363D01*
X7741D01*
X7757Y6347D01*
Y6330D01*
Y6347D01*
X7774Y6363D01*
X7791D01*
X7807Y6347D01*
Y6313D01*
X7791Y6297D01*
X8897Y6475D02*
Y6575D01*
X8947D01*
X8963Y6558D01*
Y6525D01*
X8947Y6508D01*
X8897D01*
X8930D02*
X8963Y6475D01*
X8997Y6558D02*
X9013Y6575D01*
X9047D01*
X9063Y6558D01*
Y6542D01*
X9047Y6525D01*
X9030D01*
X9047D01*
X9063Y6508D01*
Y6492D01*
X9047Y6475D01*
X9013D01*
X8997Y6492D01*
X9442Y5955D02*
Y5856D01*
Y5889D01*
X9508Y5955D01*
X9458Y5906D01*
X9508Y5856D01*
X9542Y5939D02*
X9558Y5955D01*
X9592D01*
X9608Y5939D01*
Y5922D01*
X9592Y5906D01*
X9575D01*
X9592D01*
X9608Y5889D01*
Y5872D01*
X9592Y5856D01*
X9558D01*
X9542Y5872D01*
X7833Y7480D02*
Y7397D01*
X7850Y7380D01*
X7883D01*
X7900Y7397D01*
Y7480D01*
X7933Y7380D02*
X7967D01*
X7950D01*
Y7480D01*
X7933Y7463D01*
X8897Y7150D02*
Y7250D01*
X8947D01*
X8963Y7233D01*
Y7200D01*
X8947Y7183D01*
X8897D01*
X8930D02*
X8963Y7150D01*
X9063D02*
X8997D01*
X9063Y7217D01*
Y7233D01*
X9047Y7250D01*
X9013D01*
X8997Y7233D01*
X8328Y6235D02*
Y6334D01*
X8378D01*
X8395Y6318D01*
Y6285D01*
X8378Y6268D01*
X8328D01*
X8362D02*
X8395Y6235D01*
X8428D02*
X8462D01*
X8445D01*
Y6334D01*
X8428Y6318D01*
X9158Y8779D02*
Y8879D01*
X9208D01*
X9225Y8862D01*
Y8829D01*
X9208Y8812D01*
X9158D01*
X9258Y8779D02*
X9292D01*
X9275D01*
Y8879D01*
X9258Y8862D01*
X4628Y7172D02*
X4727D01*
X4694D01*
X4628Y7238D01*
X4678Y7188D01*
X4727Y7238D01*
Y7338D02*
Y7272D01*
X4661Y7338D01*
X4644D01*
X4628Y7322D01*
Y7288D01*
X4644Y7272D01*
X6273Y7171D02*
X6372D01*
X6339D01*
X6273Y7238D01*
X6322Y7188D01*
X6372Y7238D01*
Y7271D02*
Y7304D01*
Y7287D01*
X6273D01*
X6289Y7271D01*
X7717Y6906D02*
X7700Y6889D01*
Y6856D01*
X7717Y6839D01*
X7783D01*
X7800Y6856D01*
Y6889D01*
X7783Y6906D01*
X7800Y7006D02*
Y6939D01*
X7733Y7006D01*
X7717D01*
X7700Y6989D01*
Y6956D01*
X7717Y6939D01*
X8390Y7148D02*
X8373Y7165D01*
X8340D01*
X8323Y7148D01*
Y7082D01*
X8340Y7065D01*
X8373D01*
X8390Y7082D01*
X8423Y7065D02*
X8457D01*
X8440D01*
Y7165D01*
X8423Y7148D01*
M02*
