M48
;Layer_Color=9474304
;FILE_FORMAT=4:2
METRIC,LZ
;TYPE=PLATED
T1F00S00C0.40
T2F00S00C0.90
T3F00S00C0.97
;TYPE=NON_PLATED
T4F00S00C3.10
%
T01
X0082Y00674
X007965Y00714
X007965Y0073
X00831Y007393
X00835Y0077
X0085
Y00785
X008347
X0082
Y0077
X00887Y0078
X00895Y00763
X00887Y00746
X008645Y00711
X008712Y006897
X00775Y00747
X00784Y00762
X007745Y00777
X007845Y00791
X00694Y00779
X00651Y007762
X005765Y00777
X00532Y00778
X007745Y00808
X0079Y00834
X00805Y0085
X00839Y00849
X008255Y00835
X00857Y00836
X00874Y00849
X008865Y00818
X008955Y00794
X0085Y008
X00835
X0082
T02
X007952Y005696
Y00595
X008206
X00846
X008714
X008968
Y005696
X008714
X00846
X008206
X009222
Y00595
X009398Y006731
X009652
Y006985
X009398
T03
X007138Y00875
X007392
X007646
X0079
Y009004
X007646
X007392
X007138
X008154
X008408
X008662
X008916
Y00875
X008662
X008408
X008154
T04
X0098Y0056
X0043Y0074
Y0092
X0098
M30
