G04*
G04 #@! TF.GenerationSoftware,Altium Limited,Altium Designer,20.2.5 (213)*
G04*
G04 Layer_Color=2752767*
%FSLAX42Y42*%
%MOMM*%
G71*
G04*
G04 #@! TF.SameCoordinates,652FF055-600A-4CD0-B872-06A474BCBBFF*
G04*
G04*
G04 #@! TF.FilePolarity,Positive*
G04*
G01*
G75*
%ADD12C,0.25*%
%ADD46C,0.05*%
%ADD47C,0.07*%
D12*
X7640Y5300D02*
X10100D01*
X7640D02*
Y7100D01*
X4000D02*
X7640D01*
X4000D02*
Y9500D01*
X10100D01*
Y5300D02*
Y9500D01*
D46*
X7932Y5930D02*
Y5970D01*
X7972D01*
Y5930D01*
X7932D01*
X8186D02*
Y5970D01*
X8226D01*
Y5930D01*
X8186D01*
X8440D02*
Y5970D01*
X8480D01*
Y5930D01*
X8440D01*
X8694D02*
Y5970D01*
X8734D01*
Y5930D01*
X8694D01*
X8948D02*
Y5970D01*
X8988D01*
Y5930D01*
X8948D01*
X7932Y5676D02*
Y5716D01*
X7972D01*
Y5676D01*
X7932D01*
X8186D02*
Y5716D01*
X8226D01*
Y5676D01*
X8186D01*
X8440D02*
Y5716D01*
X8480D01*
Y5676D01*
X8440D01*
X8694D02*
Y5716D01*
X8734D01*
Y5676D01*
X8694D01*
X8948D02*
Y5716D01*
X8988D01*
Y5676D01*
X8948D01*
X9202Y5930D02*
Y5970D01*
X9242D01*
Y5930D01*
X9202D01*
Y5676D02*
Y5716D01*
X9242D01*
Y5676D01*
X9202D01*
X9378Y6711D02*
Y6751D01*
X9418D01*
Y6711D01*
X9378D01*
X9632D02*
Y6751D01*
X9672D01*
Y6711D01*
X9632D01*
X9378Y6965D02*
Y7005D01*
X9418D01*
Y6965D01*
X9378D01*
X9632D02*
Y7005D01*
X9672D01*
Y6965D01*
X9632D01*
X4300Y7380D02*
X4280Y7420D01*
X4320D01*
X4300Y7380D01*
X9800Y5580D02*
X9780Y5620D01*
X9820D01*
X9800Y5580D01*
Y9180D02*
X9780Y9220D01*
X9820D01*
X9800Y9180D01*
X4300D02*
X4280Y9220D01*
X4320D01*
X4300Y9180D01*
X8500Y7980D02*
X8510Y7990D01*
X8520D01*
X8510Y8000D01*
X8520Y8010D01*
X8510D01*
X8500Y8020D01*
X8490Y8010D01*
X8480D01*
X8490Y8000D01*
X8480Y7990D01*
X8490D01*
X8500Y7980D01*
X8350D02*
X8360Y7990D01*
X8370D01*
X8360Y8000D01*
X8370Y8010D01*
X8360D01*
X8350Y8020D01*
X8340Y8010D01*
X8330D01*
X8340Y8000D01*
X8330Y7990D01*
X8340D01*
X8350Y7980D01*
X8200D02*
X8210Y7990D01*
X8220D01*
X8210Y8000D01*
X8220Y8010D01*
X8210D01*
X8200Y8020D01*
X8190Y8010D01*
X8180D01*
X8190Y8000D01*
X8180Y7990D01*
X8190D01*
X8200Y7980D01*
X8347Y7830D02*
X8358Y7840D01*
X8368D01*
X8358Y7850D01*
X8368Y7860D01*
X8358D01*
X8347Y7870D01*
X8337Y7860D01*
X8327D01*
X8337Y7850D01*
X8327Y7840D01*
X8337D01*
X8347Y7830D01*
X8500D02*
X8510Y7840D01*
X8520D01*
X8510Y7850D01*
X8520Y7860D01*
X8510D01*
X8500Y7870D01*
X8490Y7860D01*
X8480D01*
X8490Y7850D01*
X8480Y7840D01*
X8490D01*
X8500Y7830D01*
X8200D02*
X8210Y7840D01*
X8220D01*
X8210Y7850D01*
X8220Y7860D01*
X8210D01*
X8200Y7870D01*
X8190Y7860D01*
X8180D01*
X8190Y7850D01*
X8180Y7840D01*
X8190D01*
X8200Y7830D01*
X8350Y7680D02*
X8360Y7690D01*
X8370D01*
X8360Y7700D01*
X8370Y7710D01*
X8360D01*
X8350Y7720D01*
X8340Y7710D01*
X8330D01*
X8340Y7700D01*
X8330Y7690D01*
X8340D01*
X8350Y7680D01*
X8500D02*
X8510Y7690D01*
X8520D01*
X8510Y7700D01*
X8520Y7710D01*
X8510D01*
X8500Y7720D01*
X8490Y7710D01*
X8480D01*
X8490Y7700D01*
X8480Y7690D01*
X8490D01*
X8500Y7680D01*
X8200D02*
X8210Y7690D01*
X8220D01*
X8210Y7700D01*
X8220Y7710D01*
X8210D01*
X8200Y7720D01*
X8190Y7710D01*
X8180D01*
X8190Y7700D01*
X8180Y7690D01*
X8190D01*
X8200Y7680D01*
X8712Y6877D02*
X8723Y6887D01*
X8733D01*
X8723Y6897D01*
X8733Y6908D01*
X8723D01*
X8712Y6918D01*
X8702Y6908D01*
X8692D01*
X8702Y6897D01*
X8692Y6887D01*
X8702D01*
X8712Y6877D01*
X8200Y6720D02*
X8210Y6730D01*
X8220D01*
X8210Y6740D01*
X8220Y6750D01*
X8210D01*
X8200Y6760D01*
X8190Y6750D01*
X8180D01*
X8190Y6740D01*
X8180Y6730D01*
X8190D01*
X8200Y6720D01*
X6510Y7742D02*
X6520Y7752D01*
X6530D01*
X6520Y7762D01*
X6530Y7773D01*
X6520D01*
X6510Y7783D01*
X6500Y7773D01*
X6490D01*
X6500Y7762D01*
X6490Y7752D01*
X6500D01*
X6510Y7742D01*
X5765Y7750D02*
X5775Y7760D01*
X5785D01*
X5775Y7770D01*
X5785Y7780D01*
X5775D01*
X5765Y7790D01*
X5755Y7780D01*
X5745D01*
X5755Y7770D01*
X5745Y7760D01*
X5755D01*
X5765Y7750D01*
X5320Y7760D02*
X5330Y7770D01*
X5340D01*
X5330Y7780D01*
X5340Y7790D01*
X5330D01*
X5320Y7800D01*
X5310Y7790D01*
X5300D01*
X5310Y7780D01*
X5300Y7770D01*
X5310D01*
X5320Y7760D01*
X6940Y7770D02*
X6950Y7780D01*
X6960D01*
X6950Y7790D01*
X6960Y7800D01*
X6950D01*
X6940Y7810D01*
X6930Y7800D01*
X6920D01*
X6930Y7790D01*
X6920Y7780D01*
X6930D01*
X6940Y7770D01*
X8050Y8480D02*
X8060Y8490D01*
X8070D01*
X8060Y8500D01*
X8070Y8510D01*
X8060D01*
X8050Y8520D01*
X8040Y8510D01*
X8030D01*
X8040Y8500D01*
X8030Y8490D01*
X8040D01*
X8050Y8480D01*
X8740Y8470D02*
X8750Y8480D01*
X8760D01*
X8750Y8490D01*
X8760Y8500D01*
X8750D01*
X8740Y8510D01*
X8730Y8500D01*
X8720D01*
X8730Y8490D01*
X8720Y8480D01*
X8730D01*
X8740Y8470D01*
X8390D02*
X8400Y8480D01*
X8410D01*
X8400Y8490D01*
X8410Y8500D01*
X8400D01*
X8390Y8510D01*
X8380Y8500D01*
X8370D01*
X8380Y8490D01*
X8370Y8480D01*
X8380D01*
X8390Y8470D01*
X8870Y7440D02*
X8880Y7450D01*
X8890D01*
X8880Y7460D01*
X8890Y7470D01*
X8880D01*
X8870Y7480D01*
X8860Y7470D01*
X8850D01*
X8860Y7460D01*
X8850Y7450D01*
X8860D01*
X8870Y7440D01*
X8870Y7780D02*
X8880Y7790D01*
X8890D01*
X8880Y7800D01*
X8890Y7810D01*
X8880D01*
X8870Y7820D01*
X8860Y7810D01*
X8850D01*
X8860Y7800D01*
X8850Y7790D01*
X8860D01*
X8870Y7780D01*
X8955Y7920D02*
X8965Y7930D01*
X8975D01*
X8965Y7940D01*
X8975Y7950D01*
X8965D01*
X8955Y7960D01*
X8945Y7950D01*
X8935D01*
X8945Y7940D01*
X8935Y7930D01*
X8945D01*
X8955Y7920D01*
X8950Y7610D02*
X8960Y7620D01*
X8970D01*
X8960Y7630D01*
X8970Y7640D01*
X8960D01*
X8950Y7650D01*
X8940Y7640D01*
X8930D01*
X8940Y7630D01*
X8930Y7620D01*
X8940D01*
X8950Y7610D01*
X8865Y8160D02*
X8875Y8170D01*
X8885D01*
X8875Y8180D01*
X8885Y8190D01*
X8875D01*
X8865Y8200D01*
X8855Y8190D01*
X8845D01*
X8855Y8180D01*
X8845Y8170D01*
X8855D01*
X8865Y8160D01*
X8570Y8340D02*
X8580Y8350D01*
X8590D01*
X8580Y8360D01*
X8590Y8370D01*
X8580D01*
X8570Y8380D01*
X8560Y8370D01*
X8550D01*
X8560Y8360D01*
X8550Y8350D01*
X8560D01*
X8570Y8340D01*
X8255Y8330D02*
X8265Y8340D01*
X8275D01*
X8265Y8350D01*
X8275Y8360D01*
X8265D01*
X8255Y8370D01*
X8245Y8360D01*
X8235D01*
X8245Y8350D01*
X8235Y8340D01*
X8245D01*
X8255Y8330D01*
X7900Y8320D02*
X7910Y8330D01*
X7920D01*
X7910Y8340D01*
X7920Y8350D01*
X7910D01*
X7900Y8360D01*
X7890Y8350D01*
X7880D01*
X7890Y8340D01*
X7880Y8330D01*
X7890D01*
X7900Y8320D01*
X7750Y7450D02*
X7760Y7460D01*
X7770D01*
X7760Y7470D01*
X7770Y7480D01*
X7760D01*
X7750Y7490D01*
X7740Y7480D01*
X7730D01*
X7740Y7470D01*
X7730Y7460D01*
X7740D01*
X7750Y7450D01*
X7745Y8060D02*
X7755Y8070D01*
X7765D01*
X7755Y8080D01*
X7765Y8090D01*
X7755D01*
X7745Y8100D01*
X7735Y8090D01*
X7725D01*
X7735Y8080D01*
X7725Y8070D01*
X7735D01*
X7745Y8060D01*
X7845Y7890D02*
X7855Y7900D01*
X7865D01*
X7855Y7910D01*
X7865Y7920D01*
X7855D01*
X7845Y7930D01*
X7835Y7920D01*
X7825D01*
X7835Y7910D01*
X7825Y7900D01*
X7835D01*
X7845Y7890D01*
X7840Y7600D02*
X7850Y7610D01*
X7860D01*
X7850Y7620D01*
X7860Y7630D01*
X7850D01*
X7840Y7640D01*
X7830Y7630D01*
X7820D01*
X7830Y7620D01*
X7820Y7610D01*
X7830D01*
X7840Y7600D01*
X7745Y7750D02*
X7755Y7760D01*
X7765D01*
X7755Y7770D01*
X7765Y7780D01*
X7755D01*
X7745Y7790D01*
X7735Y7780D01*
X7725D01*
X7735Y7770D01*
X7725Y7760D01*
X7735D01*
X7745Y7750D01*
X8645Y7090D02*
X8655Y7100D01*
X8665D01*
X8655Y7110D01*
X8665Y7120D01*
X8655D01*
X8645Y7130D01*
X8635Y7120D01*
X8625D01*
X8635Y7110D01*
X8625Y7100D01*
X8635D01*
X8645Y7090D01*
X7965Y7120D02*
X7975Y7130D01*
X7985D01*
X7975Y7140D01*
X7985Y7150D01*
X7975D01*
X7965Y7160D01*
X7955Y7150D01*
X7945D01*
X7955Y7140D01*
X7945Y7130D01*
X7955D01*
X7965Y7120D01*
X7965Y7280D02*
X7975Y7290D01*
X7985D01*
X7975Y7300D01*
X7985Y7310D01*
X7975D01*
X7965Y7320D01*
X7955Y7310D01*
X7945D01*
X7955Y7300D01*
X7945Y7290D01*
X7955D01*
X7965Y7280D01*
X8310Y7372D02*
X8320Y7382D01*
X8330D01*
X8320Y7393D01*
X8330Y7403D01*
X8320D01*
X8310Y7413D01*
X8300Y7403D01*
X8290D01*
X8300Y7393D01*
X8290Y7382D01*
X8300D01*
X8310Y7372D01*
D47*
X8428Y9004D02*
G03*
X8428Y9004I-20J0D01*
G01*
X8936D02*
G03*
X8936Y9004I-20J0D01*
G01*
X8682D02*
G03*
X8682Y9004I-20J0D01*
G01*
X8428Y8750D02*
G03*
X8428Y8750I-20J0D01*
G01*
X8936D02*
G03*
X8936Y8750I-20J0D01*
G01*
X8682D02*
G03*
X8682Y8750I-20J0D01*
G01*
X8174Y9004D02*
G03*
X8174Y9004I-20J0D01*
G01*
Y8750D02*
G03*
X8174Y8750I-20J0D01*
G01*
X7920Y9004D02*
G03*
X7920Y9004I-20J0D01*
G01*
Y8750D02*
G03*
X7920Y8750I-20J0D01*
G01*
X7666Y9004D02*
G03*
X7666Y9004I-20J0D01*
G01*
Y8750D02*
G03*
X7666Y8750I-20J0D01*
G01*
X7412Y9004D02*
G03*
X7412Y9004I-20J0D01*
G01*
Y8750D02*
G03*
X7412Y8750I-20J0D01*
G01*
X7158Y9004D02*
G03*
X7158Y9004I-20J0D01*
G01*
Y8750D02*
G03*
X7158Y8750I-20J0D01*
G01*
M02*
